SplineFontDB: 3.0
FontName: Topmarks-Book
FullName: Topmarks Book
FamilyName: Topmarks
Weight: Book
Copyright: Copyright (c) 2012-13 by vernon adams. All rights reserved.
Version: 1.0
ItalicAngle: 0
UnderlinePosition: 0
UnderlineWidth: 0
Ascent: 1638
Descent: 410
sfntRevision: 0x00010000
LayerCount: 2
Layer: 0 1 "Back"  1
Layer: 1 1 "Fore"  0
XUID: [1021 884 -1503781107 3837522]
FSType: 8
OS2Version: 1
OS2_WeightWidthSlopeOnly: 0
OS2_UseTypoMetrics: 1
CreationTime: 1361903044
ModificationTime: 1361903231
PfmFamily: 17
TTFWeight: 400
TTFWidth: 5
LineGap: 0
VLineGap: 0
Panose: 2 0 6 3 0 0 0 0 0 0
OS2TypoAscent: 1638
OS2TypoAOffset: 0
OS2TypoDescent: -410
OS2TypoDOffset: 0
OS2TypoLinegap: 0
OS2WinAscent: 1638
OS2WinAOffset: 0
OS2WinDescent: 410
OS2WinDOffset: 0
HheadAscent: 1960
HheadAOffset: 0
HheadDescent: -625
HheadDOffset: 0
OS2SubXSize: 1331
OS2SubYSize: 1433
OS2SubXOff: 0
OS2SubYOff: 286
OS2SupXSize: 1331
OS2SupYSize: 1433
OS2SupXOff: 0
OS2SupYOff: 983
OS2StrikeYSize: 102
OS2StrikeYPos: 530
OS2Vendor: 'newt'
OS2CodePages: 20000081.00000000
OS2UnicodeRanges: 800000ef.5000204b.00000000.00000000
DEI: 91125
ShortTable: maxp 16
  1
  0
  334
  95
  7
  0
  0
  2
  0
  1
  1
  0
  64
  0
  0
  0
EndShort
LangName: 1033 "" "" "" "FontForge : Topmarks Book : 26-2-2013" "" "Version 1.0" "" "Topmarks is a trademark of vernon adams." "vernon adams" "vernon adams" "Copyright (c) 2011 by vernon adams. All rights reserved." 
GaspTable: 1 65535 2 0
Encoding: ISO8859-1
Compacted: 1
UnicodeInterp: none
NameList: AGL For New Fonts
DisplaySize: -48
AntiAlias: 1
FitToEm: 1
WinInfo: 0 21 11
BeginChars: 400 116

StartChar: exclam
Encoding: 33 33 2
Width: 737
GlyphClass: 2
Flags: W
LayerCount: 2
UndoRedoHistory
Layer: 1
Undoes
EndUndoes
Redoes
EndRedoes
EndUndoRedoHistory
Fore
SplineSet
305 373 m 1,0,-1
 254 1456 l 1,1,-1
 441 1456 l 1,2,-1
 391 373 l 1,3,-1
 305 373 l 1,0,-1
352 -6 m 0,4,5
 299 -6 299 -6 269 26.5 c 128,-1,6
 239 59 239 59 239 106 c 0,7,8
 239 156 239 156 273.5 186.5 c 128,-1,9
 308 217 308 217 353 217 c 0,10,11
 406 217 406 217 436 184.5 c 128,-1,12
 466 152 466 152 466 105 c 0,13,14
 466 55 466 55 431.5 24.5 c 128,-1,15
 397 -6 397 -6 352 -6 c 0,4,5
EndSplineSet
EndChar

StartChar: quotedbl
Encoding: 34 34 3
Width: 720
GlyphClass: 2
Flags: W
LayerCount: 2
UndoRedoHistory
Layer: 1
Undoes
EndUndoes
Redoes
EndRedoes
EndUndoRedoHistory
Fore
SplineSet
439 989 m 1,0,-1
 403 1451 l 1,1,-1
 569 1451 l 1,2,-1
 569 989 l 1,3,-1
 439 989 l 1,0,-1
150 989 m 1,4,-1
 114 1451 l 1,5,-1
 281 1451 l 1,6,-1
 281 989 l 1,7,-1
 150 989 l 1,4,-1
EndSplineSet
EndChar

StartChar: numbersign
Encoding: 35 35 4
Width: 1242
GlyphClass: 2
Flags: W
LayerCount: 2
UndoRedoHistory
Layer: 1
Undoes
EndUndoes
Redoes
EndRedoes
EndUndoRedoHistory
Fore
SplineSet
460 611 m 1,0,-1
 724 611 l 1,1,-1
 775 886 l 1,2,-1
 514 886 l 1,3,-1
 460 611 l 1,0,-1
210 60 m 1,4,-1
 294 485 l 1,5,-1
 42 485 l 1,6,-1
 53 611 l 1,7,-1
 318 611 l 1,8,9
 322 632 322 632 368 886 c 1,10,-1
 107 886 l 1,11,-1
 120 1010 l 1,12,-1
 390 1010 l 1,13,-1
 469 1420 l 1,14,-1
 615 1420 l 1,15,-1
 538 1010 l 1,16,-1
 799 1010 l 1,17,-1
 875 1420 l 1,18,-1
 1021 1420 l 1,19,-1
 943 1010 l 1,20,-1
 1184 1010 l 1,21,-1
 1170 886 l 1,22,-1
 920 886 l 1,23,-1
 869 611 l 1,24,-1
 1121 611 l 1,25,-1
 1107 485 l 1,26,-1
 847 485 l 1,27,-1
 764 60 l 1,28,-1
 619 60 l 1,29,-1
 699 485 l 1,30,-1
 438 485 l 1,31,-1
 356 60 l 1,32,-1
 210 60 l 1,4,-1
EndSplineSet
EndChar

StartChar: dollar
Encoding: 36 36 5
Width: 1190
GlyphClass: 2
Flags: W
LayerCount: 2
UndoRedoHistory
Layer: 1
Undoes
EndUndoes
Redoes
EndRedoes
EndUndoRedoHistory
Fore
SplineSet
532 818 m 1,0,1
 534 1293 l 1,2,3
 441 1281 441 1281 383.5 1219 c 128,-1,4
 326 1157 326 1157 326 1059 c 0,5,6
 326 1007 326 1007 342 966.5 c 128,-1,7
 358 926 358 926 389.5 898 c 128,-1,8
 421 870 421 870 453.5 852.5 c 128,-1,9
 486 835 486 835 532 818 c 1,0,1
654 131 m 1,10,11
 821 154 821 154 881 270 c 0,12,13
 901 310 901 310 901 358 c 0,14,15
 901 461 901 461 810 528 c 0,16,17
 769 557 769 557 658 605 c 1,18,-1
 654 131 l 1,10,11
536 -172 m 1,19,-1
 532 -16 l 1,20,21
 342 -12 342 -12 202 89 c 1,22,-1
 251 223 l 1,23,24
 383 134 383 134 531 127 c 1,25,-1
 534 648 l 1,26,27
 526 652 526 652 509 659 c 0,28,29
 442 689 442 689 405 707 c 128,-1,30
 368 725 368 725 316 756 c 128,-1,31
 264 787 264 787 228.5 823.5 c 128,-1,32
 193 860 193 860 169 904 c 0,33,34
 137 965 137 965 137 1047 c 0,35,36
 137 1199 137 1199 259 1315 c 0,37,38
 375 1424 375 1424 534 1437 c 1,39,40
 530 1575 l 1,41,-1
 654 1575 l 1,42,-1
 657 1439 l 1,43,44
 869 1434 869 1434 997 1326 c 1,45,-1
 948 1198 l 1,46,47
 842 1293 842 1293 658 1299 c 1,48,-1
 656 770 l 1,49,50
 770 726 770 726 842.5 689.5 c 128,-1,51
 915 653 915 653 972 604 c 0,52,53
 1080 511 1080 511 1080 361 c 0,54,55
 1080 232 1080 232 1007.5 149 c 128,-1,56
 935 66 935 66 819 24 c 0,57,58
 746 -3 746 -3 656 -11 c 1,59,-1
 659 -172 l 1,60,-1
 536 -172 l 1,19,-1
EndSplineSet
EndChar

StartChar: percent
Encoding: 37 37 6
Width: 1985
GlyphClass: 2
Flags: W
LayerCount: 2
UndoRedoHistory
Layer: 1
Undoes
EndUndoes
Redoes
EndRedoes
EndUndoRedoHistory
Fore
SplineSet
440 -5 m 1,0,-1
 1344 1436 l 1,1,-1
 1499 1436 l 1,2,-1
 594 -5 l 1,3,-1
 440 -5 l 1,0,-1
1452 86 m 0,4,5
 1556 86 1556 86 1609 162.5 c 128,-1,6
 1662 239 1662 239 1662 357 c 128,-1,7
 1662 475 1662 475 1610 548.5 c 128,-1,8
 1558 622 1558 622 1454 622 c 0,9,10
 1349 622 1349 622 1295 545 c 128,-1,11
 1241 468 1241 468 1241 350 c 0,12,13
 1241 169 1241 169 1358 107 c 0,14,15
 1397 86 1397 86 1452 86 c 0,4,5
524 799 m 0,16,17
 628 799 628 799 681 875.5 c 128,-1,18
 734 952 734 952 734 1069 c 0,19,20
 734 1252 734 1252 618 1314 c 0,21,22
 579 1335 579 1335 525 1335 c 0,23,24
 420 1335 420 1335 366 1259 c 128,-1,25
 312 1183 312 1183 312 1065 c 128,-1,26
 312 947 312 947 365 873 c 128,-1,27
 418 799 418 799 524 799 c 0,16,17
1449 -27 m 0,28,29
 1323 -27 1323 -27 1240.5 35 c 128,-1,30
 1158 97 1158 97 1121 202 c 0,31,32
 1097 271 1097 271 1097 351 c 0,33,34
 1097 480 1097 480 1153 570.5 c 128,-1,35
 1209 661 1209 661 1306 705 c 0,36,37
 1372 735 1372 735 1455 735 c 0,38,39
 1622 735 1622 735 1714 632 c 128,-1,40
 1806 529 1806 529 1806 356 c 0,41,42
 1806 228 1806 228 1749.5 137.5 c 128,-1,43
 1693 47 1693 47 1597 3 c 0,44,45
 1531 -27 1531 -27 1449 -27 c 0,28,29
520 686 m 0,46,47
 394 686 394 686 311 748 c 128,-1,48
 228 810 228 810 192 915 c 0,49,50
 168 984 168 984 168 1064 c 0,51,52
 168 1192 168 1192 224.5 1283.5 c 128,-1,53
 281 1375 281 1375 377 1418 c 0,54,55
 441 1447 441 1447 526 1447 c 0,56,57
 693 1447 693 1447 785 1344 c 128,-1,58
 877 1241 877 1241 877 1068 c 0,59,60
 877 940 877 940 820.5 850 c 128,-1,61
 764 760 764 760 668 716 c 0,62,63
 602 686 602 686 520 686 c 0,46,47
EndSplineSet
EndChar

StartChar: ampersand
Encoding: 38 38 7
Width: 1647
GlyphClass: 2
Flags: W
LayerCount: 2
UndoRedoHistory
Layer: 1
Undoes
EndUndoes
Redoes
EndRedoes
EndUndoRedoHistory
Fore
SplineSet
625 918 m 1,0,1
 794 1007 794 1007 844 1099 c 0,2,3
 865 1136 865 1136 865 1178 c 0,4,5
 865 1256 865 1256 809.5 1298 c 128,-1,6
 754 1340 754 1340 669 1340 c 0,7,8
 582 1340 582 1340 527 1298.5 c 128,-1,9
 472 1257 472 1257 472 1178 c 0,10,11
 472 1116 472 1116 496.5 1070 c 128,-1,12
 521 1024 521 1024 563 979 c 0,13,14
 594 946 594 946 625 918 c 1,0,1
658 116 m 0,15,16
 788 116 788 116 880 162 c 128,-1,17
 972 208 972 208 1058 291 c 1,18,19
 1056 291 1056 291 1034 311 c 1,20,21
 995 349 995 349 915.5 429.5 c 128,-1,22
 836 510 836 510 823 523 c 2,23,-1
 594 750 l 1,24,25
 526 715 526 715 484 689.5 c 128,-1,26
 442 664 442 664 393.5 619 c 128,-1,27
 345 574 345 574 320 522 c 0,28,29
 295 472 295 472 295 406 c 0,30,31
 295 303 295 303 356 236.5 c 128,-1,32
 417 170 417 170 512 138 c 0,33,34
 577 116 577 116 658 116 c 0,15,16
661 -27 m 0,35,36
 481 -27 481 -27 349.5 37.5 c 128,-1,37
 218 102 218 102 156 220 c 0,38,39
 115 298 115 298 115 402 c 0,40,41
 115 552 115 552 233 672 c 0,42,43
 318 759 318 759 494 852 c 1,44,45
 490 856 490 856 468.5 877.5 c 128,-1,46
 447 899 447 899 441.5 904.5 c 128,-1,47
 436 910 436 910 417.5 929.5 c 128,-1,48
 399 949 399 949 391.5 958.5 c 128,-1,49
 384 968 384 968 370 986.5 c 128,-1,50
 356 1005 356 1005 348 1018.5 c 128,-1,51
 340 1032 340 1032 331 1050 c 128,-1,52
 322 1068 322 1068 315 1086 c 0,53,54
 299 1128 299 1128 299 1182 c 0,55,56
 299 1278 299 1278 349 1345 c 128,-1,57
 399 1412 399 1412 478.5 1442.5 c 128,-1,58
 558 1473 558 1473 661 1473 c 0,59,60
 779 1473 779 1473 868.5 1431.5 c 128,-1,61
 958 1390 958 1390 1004 1314 c 0,62,63
 1036 1262 1036 1262 1036 1188 c 0,64,65
 1036 1079 1036 1079 942 977 c 0,66,67
 869 897 869 897 729 822 c 1,68,-1
 1144 398 l 1,69,70
 1251 549 1251 549 1285 756 c 0,71,72
 1296 825 1296 825 1296 884 c 1,73,-1
 1463 863 l 1,74,75
 1450 529 1450 529 1260 284 c 1,76,77
 1324 218 1324 218 1378.5 178.5 c 128,-1,78
 1433 139 1433 139 1508 114 c 0,79,80
 1549 101 1549 101 1618 86 c 1,81,-1
 1486 -12 l 1,82,83
 1462 -8 1462 -8 1440 -2.5 c 128,-1,84
 1418 3 1418 3 1396 13 c 128,-1,85
 1374 23 1374 23 1358 29.5 c 128,-1,86
 1342 36 1342 36 1320.5 52 c 128,-1,87
 1299 68 1299 68 1288.5 75 c 128,-1,88
 1278 82 1278 82 1255.5 102 c 128,-1,89
 1233 122 1233 122 1226.5 128 c 128,-1,90
 1220 134 1220 134 1195 158 c 128,-1,91
 1170 182 1170 182 1166 186 c 1,92,93
 1064 87 1064 87 943.5 30 c 128,-1,94
 823 -27 823 -27 661 -27 c 0,35,36
EndSplineSet
EndChar

StartChar: quotesingle
Encoding: 39 39 8
Width: 554
GlyphClass: 2
Flags: W
LayerCount: 2
UndoRedoHistory
Layer: 1
Undoes
EndUndoes
Redoes
EndRedoes
EndUndoRedoHistory
Fore
SplineSet
212 989 m 1,0,-1
 176 1451 l 1,1,-1
 342 1451 l 1,2,-1
 342 989 l 1,3,-1
 212 989 l 1,0,-1
EndSplineSet
EndChar

StartChar: parenleft
Encoding: 40 40 9
Width: 626
GlyphClass: 2
Flags: W
LayerCount: 2
UndoRedoHistory
Layer: 1
Undoes
EndUndoes
Redoes
EndRedoes
EndUndoRedoHistory
Fore
SplineSet
421 -214 m 1,0,1
 148 217 148 217 146.5 659 c 128,-1,2
 145 1101 145 1101 427 1551 c 1,3,-1
 574 1551 l 1,4,5
 311 1127 311 1127 313.5 659.5 c 128,-1,6
 316 192 316 192 570 -214 c 1,7,-1
 421 -214 l 1,0,1
EndSplineSet
EndChar

StartChar: parenright
Encoding: 41 41 10
Width: 626
GlyphClass: 2
Flags: W
LayerCount: 2
UndoRedoHistory
Layer: 1
Undoes
EndUndoes
Redoes
EndRedoes
EndUndoRedoHistory
Fore
SplineSet
56 -214 m 1,0,1
 310 192 310 192 312.5 659.5 c 128,-1,2
 315 1127 315 1127 52 1551 c 1,3,-1
 199 1551 l 1,4,5
 481 1101 481 1101 479.5 659 c 128,-1,6
 478 217 478 217 205 -214 c 1,7,-1
 56 -214 l 1,0,1
EndSplineSet
EndChar

StartChar: asterisk
Encoding: 42 42 11
Width: 1065
GlyphClass: 2
Flags: W
LayerCount: 2
UndoRedoHistory
Layer: 1
Undoes
EndUndoes
Redoes
EndRedoes
EndUndoRedoHistory
Fore
SplineSet
692 737 m 1,0,-1
 534 1003 l 1,1,-1
 381 745 l 1,2,-1
 257 820 l 1,3,-1
 448 1058 l 1,4,-1
 175 1136 l 1,5,-1
 196 1271 l 1,6,-1
 480 1148 l 1,7,8
 473 1198 473 1198 459.5 1299.5 c 128,-1,9
 446 1401 446 1401 439 1451 c 1,10,-1
 581 1451 l 1,11,-1
 581 1153 l 1,12,-1
 816 1274 l 1,13,-1
 880 1149 l 1,14,-1
 617 1061 l 1,15,-1
 818 810 l 1,16,-1
 692 737 l 1,0,-1
EndSplineSet
EndChar

StartChar: plus
Encoding: 43 43 12
Width: 1458
GlyphClass: 2
Flags: W
LayerCount: 2
UndoRedoHistory
Layer: 1
Undoes
EndUndoes
Redoes
EndRedoes
EndUndoRedoHistory
Fore
SplineSet
646 62 m 1,0,-1
 646 485 l 1,1,-1
 198 485 l 1,2,-1
 198 624 l 1,3,-1
 649 624 l 1,4,-1
 649 1047 l 1,5,-1
 797 1047 l 1,6,-1
 797 624 l 1,7,-1
 1246 624 l 1,8,-1
 1246 485 l 1,9,-1
 795 485 l 1,10,-1
 795 62 l 1,11,-1
 646 62 l 1,0,-1
EndSplineSet
EndChar

StartChar: comma
Encoding: 44 44 13
Width: 540
GlyphClass: 2
Flags: W
LayerCount: 2
UndoRedoHistory
Layer: 1
Undoes
EndUndoes
Redoes
EndRedoes
EndUndoRedoHistory
Fore
SplineSet
78 -256 m 1,0,-1
 185 207 l 1,1,-1
 372 207 l 1,2,-1
 209 -256 l 1,3,-1
 78 -256 l 1,0,-1
EndSplineSet
EndChar

StartChar: hyphen
Encoding: 45 45 14
Width: 728
GlyphClass: 2
Flags: W
LayerCount: 2
UndoRedoHistory
Layer: 1
Undoes
EndUndoes
Redoes
EndRedoes
EndUndoRedoHistory
Fore
SplineSet
79 489 m 1,0,-1
 79 626 l 1,1,-1
 651 626 l 1,2,-1
 651 489 l 1,3,-1
 79 489 l 1,0,-1
EndSplineSet
EndChar

StartChar: period
Encoding: 46 46 15
Width: 540
GlyphClass: 2
Flags: W
LayerCount: 2
UndoRedoHistory
Layer: 1
Undoes
EndUndoes
Redoes
EndRedoes
EndUndoRedoHistory
Fore
SplineSet
251 0 m 0,0,1
 201 0 201 0 172.5 30.5 c 128,-1,2
 144 61 144 61 144 106 c 0,3,4
 144 153 144 153 176.5 182 c 128,-1,5
 209 211 209 211 252 211 c 0,6,7
 302 211 302 211 330.5 180.5 c 128,-1,8
 359 150 359 150 359 105 c 0,9,10
 359 58 359 58 326.5 29 c 128,-1,11
 294 0 294 0 251 0 c 0,0,1
EndSplineSet
EndChar

StartChar: slash
Encoding: 47 47 16
Width: 717
GlyphClass: 2
Flags: W
LayerCount: 2
UndoRedoHistory
Layer: 1
Undoes
EndUndoes
Redoes
EndRedoes
EndUndoRedoHistory
Fore
SplineSet
-47 -215 m 1,0,-1
 590 1451 l 1,1,-1
 757 1451 l 1,2,-1
 116 -215 l 1,3,-1
 -47 -215 l 1,0,-1
EndSplineSet
EndChar

StartChar: zero
Encoding: 48 48 17
Width: 1219
GlyphClass: 2
Flags: W
LayerCount: 2
UndoRedoHistory
Layer: 1
Undoes
EndUndoes
Redoes
EndRedoes
EndUndoRedoHistory
Fore
SplineSet
607 -23 m 0,0,1
 494 -23 494 -23 406 16 c 128,-1,2
 318 55 318 55 262 121.5 c 128,-1,3
 206 188 206 188 169.5 283.5 c 128,-1,4
 133 379 133 379 118.5 483 c 128,-1,5
 104 587 104 587 104 710 c 128,-1,6
 104 833 104 833 119 938.5 c 128,-1,7
 134 1044 134 1044 170.5 1140.5 c 128,-1,8
 207 1237 207 1237 263.5 1305 c 128,-1,9
 320 1373 320 1373 407.5 1413 c 128,-1,10
 495 1453 495 1453 607 1453 c 0,11,12
 725 1453 725 1453 815 1414 c 128,-1,13
 905 1375 905 1375 961 1309.5 c 128,-1,14
 1017 1244 1017 1244 1052.5 1146.5 c 128,-1,15
 1088 1049 1088 1049 1101.5 944 c 128,-1,16
 1115 839 1115 839 1115 710 c 0,17,18
 1115 590 1115 590 1099 485.5 c 128,-1,19
 1083 381 1083 381 1045 286 c 128,-1,20
 1007 191 1007 191 950 123.5 c 128,-1,21
 893 56 893 56 805 16.5 c 128,-1,22
 717 -23 717 -23 607 -23 c 0,0,1
607 119 m 0,23,24
 682 119 682 119 740.5 155 c 128,-1,25
 799 191 799 191 834 248.5 c 128,-1,26
 869 306 869 306 891.5 386 c 128,-1,27
 914 466 914 466 922.5 544.5 c 128,-1,28
 931 623 931 623 931 710 c 0,29,30
 931 777 931 777 928 834 c 128,-1,31
 925 891 925 891 916 954 c 128,-1,32
 907 1017 907 1017 892.5 1067.5 c 128,-1,33
 878 1118 878 1118 853 1165 c 128,-1,34
 828 1212 828 1212 795 1243 c 128,-1,35
 762 1274 762 1274 714 1293 c 128,-1,36
 666 1312 666 1312 607 1312 c 0,37,38
 530 1312 530 1312 471 1275 c 128,-1,39
 412 1238 412 1238 377 1179.5 c 128,-1,40
 342 1121 342 1121 320 1039.5 c 128,-1,41
 298 958 298 958 290 878.5 c 128,-1,42
 282 799 282 799 282 710 c 0,43,44
 282 643 282 643 285 586.5 c 128,-1,45
 288 530 288 530 297 467.5 c 128,-1,46
 306 405 306 405 320.5 356.5 c 128,-1,47
 335 308 335 308 360 262 c 128,-1,48
 385 216 385 216 418.5 185.5 c 128,-1,49
 452 155 452 155 500 137 c 128,-1,50
 548 119 548 119 607 119 c 0,23,24
EndSplineSet
EndChar

StartChar: one
Encoding: 49 49 18
Width: 1190
GlyphClass: 2
Flags: W
LayerCount: 2
UndoRedoHistory
Layer: 1
Undoes
EndUndoes
Redoes
EndRedoes
EndUndoRedoHistory
Fore
SplineSet
552 0 m 1,0,-1
 552 1270 l 1,1,2
 450 1193 450 1193 294 1128 c 1,3,-1
 253 1259 l 1,4,5
 432 1341 432 1341 559 1436 c 1,6,-1
 724 1438 l 1,7,-1
 724 0 l 1,8,-1
 552 0 l 1,0,-1
EndSplineSet
EndChar

StartChar: two
Encoding: 50 50 19
Width: 1248
GlyphClass: 2
Flags: W
LayerCount: 2
UndoRedoHistory
Layer: 1
Undoes
EndUndoes
Redoes
EndRedoes
EndUndoRedoHistory
Fore
SplineSet
99 0 m 1,0,-1
 98 147 l 1,1,2
 137 185 137 185 248 288.5 c 128,-1,3
 359 392 359 392 437 468 c 128,-1,4
 515 544 515 544 583 616 c 0,5,6
 587 620 587 620 623.5 658.5 c 128,-1,7
 660 697 660 697 671 708.5 c 128,-1,8
 682 720 682 720 714.5 758 c 128,-1,9
 747 796 747 796 760 816 c 128,-1,10
 773 836 773 836 796.5 873 c 128,-1,11
 820 910 820 910 830 938 c 128,-1,12
 840 966 840 966 848.5 1001.5 c 128,-1,13
 857 1037 857 1037 857 1071 c 0,14,15
 857 1184 857 1184 777 1245.5 c 128,-1,16
 697 1307 697 1307 573 1307 c 0,17,18
 447 1307 447 1307 361 1244 c 128,-1,19
 275 1181 275 1181 230 1078 c 1,20,-1
 133 1175 l 1,21,22
 180 1302 180 1302 298 1375 c 128,-1,23
 416 1448 416 1448 584 1448 c 0,24,25
 711 1448 711 1448 810.5 1407.5 c 128,-1,26
 910 1367 910 1367 971 1282 c 128,-1,27
 1032 1197 1032 1197 1032 1078 c 0,28,29
 1032 1029 1032 1029 1019.5 978 c 128,-1,30
 1007 927 1007 927 990 885.5 c 128,-1,31
 973 844 973 844 941 795.5 c 128,-1,32
 909 747 909 747 884.5 714.5 c 128,-1,33
 860 682 860 682 817.5 636 c 128,-1,34
 775 590 775 590 751 566.5 c 128,-1,35
 727 543 727 543 682.5 500 c 128,-1,36
 638 457 638 457 623 442 c 0,37,38
 566 385 566 385 305 145 c 1,39,-1
 1035 145 l 1,40,-1
 1035 0 l 1,41,-1
 99 0 l 1,0,-1
EndSplineSet
EndChar

StartChar: three
Encoding: 51 51 20
Width: 1190
GlyphClass: 2
Flags: W
LayerCount: 2
UndoRedoHistory
Layer: 1
Undoes
EndUndoes
Redoes
EndRedoes
EndUndoRedoHistory
Fore
SplineSet
519 -23 m 0,0,1
 358 -23 358 -23 246.5 39.5 c 128,-1,2
 135 102 135 102 108 223 c 1,3,-1
 191 324 l 1,4,5
 228 228 228 228 315 173.5 c 128,-1,6
 402 119 402 119 528 119 c 0,7,8
 676 119 676 119 773.5 190.5 c 128,-1,9
 871 262 871 262 871 394 c 0,10,11
 871 683 871 683 462 672 c 2,12,-1
 385 670 l 1,13,-1
 383 813 l 1,14,-1
 446 813 l 2,15,16
 533 813 533 813 598.5 825.5 c 128,-1,17
 664 838 664 838 717 867.5 c 128,-1,18
 770 897 770 897 798 951.5 c 128,-1,19
 826 1006 826 1006 826 1085 c 0,20,21
 826 1198 826 1198 749 1252 c 128,-1,22
 672 1306 672 1306 544 1306 c 0,23,24
 324 1306 324 1306 219 1128 c 1,25,-1
 121 1217 l 1,26,27
 166 1326 166 1326 280.5 1387.5 c 128,-1,28
 395 1449 395 1449 550 1449 c 0,29,30
 675 1449 675 1449 777.5 1409.5 c 128,-1,31
 880 1370 880 1370 945 1286 c 128,-1,32
 1010 1202 1010 1202 1010 1086 c 0,33,34
 1010 1015 1010 1015 987 956.5 c 128,-1,35
 964 898 964 898 923 858 c 128,-1,36
 882 818 882 818 832 790.5 c 128,-1,37
 782 763 782 763 721 746 c 1,38,39
 868 717 868 717 958.5 629 c 128,-1,40
 1049 541 1049 541 1049 391 c 0,41,42
 1049 291 1049 291 1005.5 210.5 c 128,-1,43
 962 130 962 130 887.5 80 c 128,-1,44
 813 30 813 30 719 3.5 c 128,-1,45
 625 -23 625 -23 519 -23 c 0,0,1
EndSplineSet
EndChar

StartChar: four
Encoding: 52 52 21
Width: 1189
GlyphClass: 2
Flags: W
LayerCount: 2
UndoRedoHistory
Layer: 1
Undoes
EndUndoes
Redoes
EndRedoes
EndUndoRedoHistory
Fore
SplineSet
196 483 m 1,0,-1
 726 483 l 1,1,-1
 726 1292 l 1,2,-1
 638 1146 l 1,3,-1
 196 483 l 1,0,-1
726 0 m 1,4,-1
 726 351 l 1,5,-1
 25 351 l 1,6,-1
 25 475 l 1,7,-1
 690 1420 l 1,8,-1
 898 1420 l 1,9,-1
 898 483 l 1,10,-1
 1112 483 l 1,11,-1
 1112 351 l 1,12,-1
 898 351 l 1,13,-1
 898 0 l 1,14,-1
 726 0 l 1,4,-1
EndSplineSet
EndChar

StartChar: five
Encoding: 53 53 22
Width: 1190
GlyphClass: 2
Flags: W
LayerCount: 2
UndoRedoHistory
Layer: 1
Undoes
EndUndoes
Redoes
EndRedoes
EndUndoRedoHistory
Fore
SplineSet
147 173 m 1,0,1
 228 289 l 1,2,3
 343 119 343 119 546 119 c 0,4,5
 707 119 707 119 799 214.5 c 128,-1,6
 891 310 891 310 891 452 c 0,7,8
 891 596 891 596 810.5 677 c 128,-1,9
 730 758 730 758 593 758 c 0,10,11
 521 758 521 758 465.5 731 c 128,-1,12
 410 704 410 704 379 658 c 1,13,-1
 203 652 l 1,14,-1
 203 1425 l 1,15,-1
 994 1425 l 1,16,-1
 994 1280 l 1,17,-1
 366 1280 l 1,18,-1
 352 839 l 1,19,20
 466 905 466 905 599 905 c 0,21,22
 710 905 710 905 799.5 869.5 c 128,-1,23
 889 834 889 834 947.5 772 c 128,-1,24
 1006 710 1006 710 1037 627.5 c 128,-1,25
 1068 545 1068 545 1068 449 c 0,26,27
 1068 334 1068 334 1028.5 243 c 128,-1,28
 989 152 989 152 919 94.5 c 128,-1,29
 849 37 849 37 754.5 7 c 128,-1,30
 660 -23 660 -23 548 -23 c 0,31,32
 409 -23 409 -23 307.5 29 c 128,-1,33
 206 81 206 81 147 173 c 1,0,1
EndSplineSet
EndChar

StartChar: six
Encoding: 54 54 23
Width: 1248
GlyphClass: 2
Flags: W
LayerCount: 2
UndoRedoHistory
Layer: 1
Undoes
EndUndoes
Redoes
EndRedoes
EndUndoRedoHistory
Fore
SplineSet
639 127 m 0,0,1
 798 127 798 127 887.5 216.5 c 128,-1,2
 977 306 977 306 977 461 c 0,3,4
 977 516 977 516 967 565.5 c 128,-1,5
 957 615 957 615 933 662.5 c 128,-1,6
 909 710 909 710 872 744.5 c 128,-1,7
 835 779 835 779 777 800 c 128,-1,8
 719 821 719 821 645 821 c 0,9,10
 487 820 487 820 390.5 721 c 128,-1,11
 294 622 294 622 294 469 c 0,12,13
 294 401 294 401 315.5 340.5 c 128,-1,14
 337 280 337 280 378 232 c 128,-1,15
 419 184 419 184 486.5 155.5 c 128,-1,16
 554 127 554 127 639 127 c 0,0,1
641 -22 m 0,17,18
 538 -22 538 -22 453.5 7.5 c 128,-1,19
 369 37 369 37 312 86.5 c 128,-1,20
 255 136 255 136 214.5 204.5 c 128,-1,21
 174 273 174 273 153.5 346.5 c 128,-1,22
 133 420 133 420 127 501 c 0,23,24
 121 587 121 587 127.5 673 c 128,-1,25
 134 759 134 759 156.5 849.5 c 128,-1,26
 179 940 179 940 216.5 1022 c 128,-1,27
 254 1104 254 1104 314.5 1180.5 c 128,-1,28
 375 1257 375 1257 453 1316.5 c 128,-1,29
 531 1376 531 1376 638.5 1420.5 c 128,-1,30
 746 1465 746 1465 874 1484 c 1,31,-1
 910 1338 l 1,32,33
 782 1321 782 1321 676 1270 c 128,-1,34
 570 1219 570 1219 496 1143 c 128,-1,35
 422 1067 422 1067 373 975.5 c 128,-1,36
 324 884 324 884 301 779 c 1,37,38
 346 863 346 863 457 910 c 128,-1,39
 568 957 568 957 665 957 c 0,40,41
 888 957 888 957 1016 817 c 128,-1,42
 1144 677 1144 677 1144 466 c 0,43,44
 1144 251 1144 251 1001.5 114.5 c 128,-1,45
 859 -22 859 -22 641 -22 c 0,17,18
EndSplineSet
EndChar

StartChar: seven
Encoding: 55 55 24
Width: 1196
GlyphClass: 2
Flags: W
LayerCount: 2
UndoRedoHistory
Layer: 1
Undoes
EndUndoes
Redoes
EndRedoes
EndUndoRedoHistory
Fore
SplineSet
315 0 m 1,0,-1
 895 1275 l 1,1,-1
 117 1275 l 1,2,-1
 117 1420 l 1,3,-1
 1087 1420 l 1,4,-1
 1087 1329 l 1,5,-1
 501 0 l 1,6,-1
 315 0 l 1,0,-1
EndSplineSet
EndChar

StartChar: eight
Encoding: 56 56 25
Width: 1196
GlyphClass: 2
Flags: W
LayerCount: 2
UndoRedoHistory
Layer: 1
Undoes
EndUndoes
Redoes
EndRedoes
EndUndoRedoHistory
Fore
SplineSet
598 820 m 1,0,1
 661 832 661 832 710 850.5 c 128,-1,2
 759 869 759 869 800 900 c 128,-1,3
 841 931 841 931 863 978 c 128,-1,4
 885 1025 885 1025 885 1086 c 0,5,6
 885 1198 885 1198 803.5 1257.5 c 128,-1,7
 722 1317 722 1317 598 1317 c 0,8,9
 505 1317 505 1317 436 1282.5 c 128,-1,10
 367 1248 367 1248 334 1185 c 0,11,12
 311 1141 311 1141 311 1086 c 0,13,14
 311 1025 311 1025 333 978 c 128,-1,15
 355 931 355 931 396 900 c 128,-1,16
 437 869 437 869 486 850.5 c 128,-1,17
 535 832 535 832 598 820 c 1,0,1
598 119 m 0,18,19
 704 119 704 119 780 157.5 c 128,-1,20
 856 196 856 196 891 268 c 0,21,22
 915 316 915 316 915 380 c 0,23,24
 915 608 915 608 598 673 c 1,25,26
 374 628 374 628 305 489 c 0,27,28
 281 441 281 441 281 380 c 0,29,30
 281 251 281 251 368.5 185 c 128,-1,31
 456 119 456 119 598 119 c 0,18,19
598 -23 m 0,32,33
 440 -23 440 -23 321.5 36 c 128,-1,34
 203 95 203 95 145 200 c 0,35,36
 104 273 104 273 104 367 c 0,37,38
 104 653 104 653 420 747 c 1,39,40
 139 834 139 834 139 1091 c 0,41,42
 139 1159 139 1159 161.5 1216.5 c 128,-1,43
 184 1274 184 1274 223.5 1314.5 c 128,-1,44
 263 1355 263 1355 312 1383 c 128,-1,45
 361 1411 361 1411 419 1428 c 0,46,47
 507 1453 507 1453 598 1453 c 0,48,49
 748 1453 748 1453 858 1398 c 128,-1,50
 968 1343 968 1343 1021 1244 c 0,51,52
 1057 1176 1057 1176 1057 1091 c 0,53,54
 1057 834 1057 834 776 747 c 1,55,56
 1092 653 1092 653 1092 367 c 0,57,58
 1092 186 1092 186 943 78 c 0,59,60
 804 -23 804 -23 598 -23 c 0,32,33
EndSplineSet
EndChar

StartChar: nine
Encoding: 57 57 26
Width: 1248
GlyphClass: 2
Flags: W
LayerCount: 2
UndoRedoHistory
Layer: 1
Undoes
EndUndoes
Redoes
EndRedoes
EndUndoRedoHistory
Fore
SplineSet
527 -76 m 1,0,-1
 391 0 l 1,1,-1
 800 575 l 1,2,3
 788 566 788 566 770.5 555.5 c 128,-1,4
 753 545 753 545 704.5 530 c 128,-1,5
 656 515 656 515 607 515 c 0,6,7
 457 515 457 515 344.5 578.5 c 128,-1,8
 232 642 232 642 174.5 750.5 c 128,-1,9
 117 859 117 859 117 995 c 0,10,11
 117 1209 117 1209 259.5 1346 c 128,-1,12
 402 1483 402 1483 620 1483 c 0,13,14
 748 1483 748 1483 849 1442 c 128,-1,15
 950 1401 950 1401 1011 1331 c 128,-1,16
 1072 1261 1072 1261 1103 1174.5 c 128,-1,17
 1134 1088 1134 1088 1134 991 c 0,18,19
 1134 798 1134 798 995 598 c 2,20,-1
 527 -76 l 1,0,-1
627 651 m 0,21,22
 793 651 793 651 880 743.5 c 128,-1,23
 967 836 967 836 967 992 c 0,24,25
 967 1155 967 1155 885 1244.5 c 128,-1,26
 803 1334 803 1334 632 1334 c 0,27,28
 472 1334 472 1334 380.5 1243 c 128,-1,29
 289 1152 289 1152 289 994 c 0,30,31
 289 926 289 926 306.5 867 c 128,-1,32
 324 808 324 808 362 758 c 128,-1,33
 400 708 400 708 467.5 679.5 c 128,-1,34
 535 651 535 651 627 651 c 0,21,22
EndSplineSet
EndChar

StartChar: colon
Encoding: 58 58 27
Width: 540
GlyphClass: 2
Flags: W
LayerCount: 2
UndoRedoHistory
Layer: 1
Undoes
EndUndoes
Redoes
EndRedoes
EndUndoRedoHistory
Fore
SplineSet
159 841 m 1,0,-1
 159 1051 l 1,1,-1
 376 1051 l 1,2,-1
 376 841 l 1,3,-1
 159 841 l 1,0,-1
159 -11 m 1,4,-1
 159 199 l 1,5,-1
 376 199 l 1,6,-1
 376 -11 l 1,7,-1
 159 -11 l 1,4,-1
EndSplineSet
EndChar

StartChar: semicolon
Encoding: 59 59 28
Width: 540
GlyphClass: 2
Flags: W
LayerCount: 2
UndoRedoHistory
Layer: 1
Undoes
EndUndoes
Redoes
EndRedoes
EndUndoRedoHistory
Fore
SplineSet
159 841 m 1,0,-1
 206 1051 l 1,1,-1
 376 1051 l 1,2,-1
 376 841 l 1,3,-1
 159 841 l 1,0,-1
100 -256 m 1,4,-1
 206 207 l 1,5,-1
 394 207 l 1,6,-1
 231 -256 l 1,7,-1
 100 -256 l 1,4,-1
EndSplineSet
EndChar

StartChar: less
Encoding: 60 60 29
Width: 1458
GlyphClass: 2
Flags: W
LayerCount: 2
UndoRedoHistory
Layer: 1
Undoes
EndUndoes
Redoes
EndRedoes
EndUndoRedoHistory
Fore
SplineSet
1223 48 m 1,0,-1
 219 508 l 1,1,-1
 219 595 l 1,2,-1
 1227 1067 l 1,3,-1
 1227 914 l 1,4,-1
 438 552 l 1,5,-1
 1223 200 l 1,6,-1
 1223 48 l 1,0,-1
EndSplineSet
EndChar

StartChar: equal
Encoding: 61 61 30
Width: 1458
GlyphClass: 2
Flags: W
LayerCount: 2
UndoRedoHistory
Layer: 1
Undoes
EndUndoes
Redoes
EndRedoes
EndUndoRedoHistory
Fore
SplineSet
197 689 m 1,0,-1
 197 827 l 1,1,-1
 1246 827 l 1,2,-1
 1246 689 l 1,3,-1
 197 689 l 1,0,-1
198 283 m 1,4,-1
 198 420 l 1,5,-1
 1247 420 l 1,6,-1
 1247 283 l 1,7,-1
 198 283 l 1,4,-1
EndSplineSet
EndChar

StartChar: greater
Encoding: 62 62 31
Width: 1458
GlyphClass: 2
Flags: W
LayerCount: 2
UndoRedoHistory
Layer: 1
Undoes
EndUndoes
Redoes
EndRedoes
EndUndoRedoHistory
Fore
SplineSet
215 58 m 1,0,-1
 215 212 l 1,1,-1
 1004 555 l 1,2,-1
 220 926 l 1,3,-1
 220 1078 l 1,4,-1
 1225 594 l 1,5,-1
 1225 505 l 1,6,-1
 215 58 l 1,0,-1
EndSplineSet
EndChar

StartChar: question
Encoding: 63 63 32
Width: 1032
GlyphClass: 2
Flags: W
LayerCount: 2
UndoRedoHistory
Layer: 1
Undoes
EndUndoes
Redoes
EndRedoes
EndUndoRedoHistory
Fore
SplineSet
425 0 m 0,0,1
 375 0 375 0 346.5 30.5 c 128,-1,2
 318 61 318 61 318 106 c 0,3,4
 318 153 318 153 350.5 182 c 128,-1,5
 383 211 383 211 426 211 c 0,6,7
 476 211 476 211 504.5 180.5 c 128,-1,8
 533 150 533 150 533 105 c 0,9,10
 533 58 533 58 500.5 29 c 128,-1,11
 468 0 468 0 425 0 c 0,0,1
356 368 m 1,12,13
 346 464 346 464 346 530 c 0,14,15
 346 581 346 581 367 627.5 c 128,-1,16
 388 674 388 674 422 710.5 c 128,-1,17
 456 747 456 747 497 782 c 128,-1,18
 538 817 538 817 579 853.5 c 128,-1,19
 620 890 620 890 654 928.5 c 128,-1,20
 688 967 688 967 709 1017.5 c 128,-1,21
 730 1068 730 1068 730 1125 c 0,22,23
 730 1214 730 1214 670 1266 c 128,-1,24
 610 1318 610 1318 524 1327 c 128,-1,25
 438 1336 438 1336 345 1318.5 c 128,-1,26
 252 1301 252 1301 183 1262 c 1,27,-1
 183 1413 l 1,28,29
 327 1483 327 1483 464 1483 c 0,30,31
 672 1483 672 1483 785.5 1387 c 128,-1,32
 899 1291 899 1291 899 1133 c 0,33,34
 899 1063 899 1063 875.5 1002.5 c 128,-1,35
 852 942 852 942 814.5 897.5 c 128,-1,36
 777 853 777 853 732 812 c 128,-1,37
 687 771 687 771 642 732 c 128,-1,38
 597 693 597 693 559.5 653 c 128,-1,39
 522 613 522 613 498.5 560 c 128,-1,40
 475 507 475 507 475 447 c 0,41,42
 475 413 475 413 481 368 c 1,43,-1
 356 368 l 1,12,13
EndSplineSet
EndChar

StartChar: at
Encoding: 64 64 33
Width: 1895
GlyphClass: 2
Flags: W
LayerCount: 2
UndoRedoHistory
Layer: 1
Undoes
EndUndoes
Redoes
EndRedoes
EndUndoRedoHistory
Fore
SplineSet
831 385 m 0,0,1
 920 385 920 385 993 453 c 128,-1,2
 1066 521 1066 521 1103.5 620 c 128,-1,3
 1141 719 1141 719 1141 821 c 0,4,5
 1141 1007 1141 1007 980 1007 c 0,6,7
 889 1007 889 1007 812.5 940.5 c 128,-1,8
 736 874 736 874 695.5 777 c 128,-1,9
 655 680 655 680 655 582 c 0,10,11
 655 492 655 492 700.5 438.5 c 128,-1,12
 746 385 746 385 831 385 c 0,0,1
967 -109 m 0,13,14
 792 -109 792 -109 637.5 -50.5 c 128,-1,15
 483 8 483 8 371.5 111 c 128,-1,16
 260 214 260 214 195 361.5 c 128,-1,17
 130 509 130 509 130 679 c 0,18,19
 130 906 130 906 243.5 1089.5 c 128,-1,20
 357 1273 357 1273 549 1374.5 c 128,-1,21
 741 1476 741 1476 971 1476 c 0,22,23
 1132 1476 1132 1476 1276 1426.5 c 128,-1,24
 1420 1377 1420 1377 1527 1289.5 c 128,-1,25
 1634 1202 1634 1202 1697 1072.5 c 128,-1,26
 1760 943 1760 943 1760 791 c 0,27,28
 1760 686 1760 686 1722.5 583 c 128,-1,29
 1685 480 1685 480 1622.5 401 c 128,-1,30
 1560 322 1560 322 1471.5 273.5 c 128,-1,31
 1383 225 1383 225 1288 225 c 0,32,33
 1099 225 1099 225 1071 384 c 1,34,35
 967 257 967 257 814 257 c 0,36,37
 733 257 733 257 670 289 c 128,-1,38
 607 321 607 321 571 373.5 c 128,-1,39
 535 426 535 426 516.5 486 c 128,-1,40
 498 546 498 546 498 610 c 0,41,42
 498 708 498 708 538 804.5 c 128,-1,43
 578 901 578 901 643 974 c 128,-1,44
 708 1047 708 1047 797 1092.5 c 128,-1,45
 886 1138 886 1138 978 1138 c 0,46,47
 1056 1138 1056 1138 1116.5 1106.5 c 128,-1,48
 1177 1075 1177 1075 1207 1022 c 1,49,-1
 1225 1107 l 1,50,-1
 1371 1107 l 1,51,52
 1349 1009 1349 1009 1322 894.5 c 128,-1,53
 1295 780 1295 780 1280.5 717 c 128,-1,54
 1266 654 1266 654 1252 591 c 128,-1,55
 1238 528 1238 528 1232 492 c 128,-1,56
 1226 456 1226 456 1226 436 c 0,57,58
 1226 393 1226 393 1245.5 371.5 c 128,-1,59
 1265 350 1265 350 1309 350 c 0,60,61
 1394 350 1394 350 1464 420.5 c 128,-1,62
 1534 491 1534 491 1570.5 592.5 c 128,-1,63
 1607 694 1607 694 1607 796 c 0,64,65
 1607 964 1607 964 1521 1093 c 128,-1,66
 1435 1222 1435 1222 1290 1289.5 c 128,-1,67
 1145 1357 1145 1357 966 1357 c 0,68,69
 775 1357 775 1357 618 1267.5 c 128,-1,70
 461 1178 461 1178 371 1022 c 128,-1,71
 281 866 281 866 281 677 c 0,72,73
 281 482 281 482 370 330 c 128,-1,74
 459 178 459 178 616.5 95 c 128,-1,75
 774 12 774 12 972 12 c 0,76,77
 1275 12 1275 12 1486 192 c 1,78,-1
 1566 122 l 1,79,80
 1467 14 1467 14 1313 -47.5 c 128,-1,81
 1159 -109 1159 -109 967 -109 c 0,13,14
EndSplineSet
EndChar

StartChar: A
Encoding: 65 65 34
Width: 1425
GlyphClass: 2
Flags: W
LayerCount: 2
UndoRedoHistory
Layer: 1
Undoes
EndUndoes
Redoes
EndRedoes
EndUndoRedoHistory
Fore
SplineSet
408 531 m 1,0,-1
 1005 531 l 1,1,-1
 808 1027 l 1,2,-1
 706 1298 l 1,3,-1
 602 1026 l 1,4,-1
 408 531 l 1,0,-1
13 0 m 1,5,-1
 617 1456 l 1,6,-1
 802 1456 l 1,7,-1
 1407 0 l 1,8,-1
 1216 0 l 1,9,-1
 1059 395 l 1,10,-1
 354 395 l 1,11,-1
 199 0 l 1,12,-1
 13 0 l 1,5,-1
EndSplineSet
EndChar

StartChar: B
Encoding: 66 66 35
Width: 1297
GlyphClass: 2
Flags: W
LayerCount: 2
UndoRedoHistory
Layer: 1
Undoes
EndUndoes
Redoes
EndRedoes
EndUndoRedoHistory
Fore
SplineSet
346 825 m 1,0,-1
 569 825 l 2,1,2
 780 825 780 825 871 883.5 c 128,-1,3
 962 942 962 942 962 1077 c 0,4,5
 962 1202 962 1202 875.5 1255 c 128,-1,6
 789 1308 789 1308 585 1308 c 2,7,-1
 346 1308 l 1,8,-1
 346 825 l 1,0,-1
346 148 m 1,9,-1
 645 148 l 2,10,11
 848 148 848 148 939 208 c 128,-1,12
 1030 268 1030 268 1030 406 c 0,13,14
 1030 554 1030 554 930 619 c 128,-1,15
 830 684 830 684 599 684 c 2,16,-1
 346 684 l 1,17,-1
 346 148 l 1,9,-1
174 0 m 1,18,-1
 174 1456 l 1,19,-1
 585 1456 l 2,20,21
 871 1456 871 1456 1007 1373.5 c 128,-1,22
 1143 1291 1143 1291 1143 1105 c 0,23,24
 1143 967 1143 967 1086.5 888.5 c 128,-1,25
 1030 810 1030 810 908 769 c 1,26,27
 1061 739 1061 739 1136.5 652 c 128,-1,28
 1212 565 1212 565 1212 403 c 0,29,30
 1212 0 1212 0 651 0 c 2,31,-1
 174 0 l 1,18,-1
EndSplineSet
EndChar

StartChar: C
Encoding: 67 67 36
Width: 1391
GlyphClass: 2
Flags: W
LayerCount: 2
UndoRedoHistory
Layer: 1
Undoes
EndUndoes
Redoes
EndRedoes
EndUndoRedoHistory
Fore
SplineSet
816 -22 m 0,0,1
 653 -22 653 -22 520 33 c 128,-1,2
 387 88 387 88 298 187 c 128,-1,3
 209 286 209 286 160.5 424 c 128,-1,4
 112 562 112 562 112 726 c 0,5,6
 112 946 112 946 198.5 1117.5 c 128,-1,7
 285 1289 285 1289 446 1386 c 128,-1,8
 607 1483 607 1483 818 1483 c 0,9,10
 970 1483 970 1483 1077.5 1443 c 128,-1,11
 1185 1403 1185 1403 1281 1332 c 1,12,-1
 1202 1206 l 1,13,14
 1038 1331 1038 1331 837 1331 c 0,15,16
 664 1331 664 1331 540 1252 c 128,-1,17
 416 1173 416 1173 355.5 1038 c 128,-1,18
 295 903 295 903 295 725 c 0,19,20
 295 595 295 595 327.5 487 c 128,-1,21
 360 379 360 379 424 299 c 128,-1,22
 488 219 488 219 589 174.5 c 128,-1,23
 690 130 690 130 821 130 c 0,24,25
 1081 130 1081 130 1238 267 c 1,26,-1
 1295 127 l 1,27,28
 1110 -22 1110 -22 816 -22 c 0,0,1
EndSplineSet
EndChar

StartChar: D
Encoding: 68 68 37
Width: 1523
GlyphClass: 2
Flags: W
LayerCount: 2
UndoRedoHistory
Layer: 1
Undoes
EndUndoes
Redoes
EndRedoes
EndUndoRedoHistory
Fore
SplineSet
174 0 m 1,0,-1
 174 1456 l 1,1,-1
 489 1456 l 2,2,3
 658 1456 658 1456 795.5 1433 c 128,-1,4
 933 1410 933 1410 1049.5 1356.5 c 128,-1,5
 1166 1303 1166 1303 1244.5 1219.5 c 128,-1,6
 1323 1136 1323 1136 1367 1011 c 128,-1,7
 1411 886 1411 886 1411 724 c 0,8,9
 1411 546 1411 546 1351.5 407.5 c 128,-1,10
 1292 269 1292 269 1183 180.5 c 128,-1,11
 1074 92 1074 92 924 46 c 128,-1,12
 774 0 774 0 591 0 c 2,13,-1
 174 0 l 1,0,-1
346 148 m 1,14,-1
 607 148 l 2,15,16
 901 148 901 148 1065 294.5 c 128,-1,17
 1229 441 1229 441 1229 721 c 0,18,19
 1229 886 1229 886 1181 1001.5 c 128,-1,20
 1133 1117 1133 1117 1037 1183.5 c 128,-1,21
 941 1250 941 1250 813 1279 c 128,-1,22
 685 1308 685 1308 510 1308 c 2,23,-1
 346 1308 l 1,24,-1
 346 148 l 1,14,-1
EndSplineSet
EndChar

StartChar: E
Encoding: 69 69 38
Width: 1187
GlyphClass: 2
Flags: W
LayerCount: 2
UndoRedoHistory
Layer: 1
Undoes
EndUndoes
Redoes
EndRedoes
EndUndoRedoHistory
Fore
SplineSet
174 0 m 1,0,-1
 174 1456 l 1,1,-1
 1041 1456 l 1,2,-1
 1041 1308 l 1,3,-1
 346 1308 l 1,4,-1
 346 820 l 1,5,-1
 1003 820 l 1,6,-1
 1003 672 l 1,7,-1
 346 672 l 1,8,-1
 346 148 l 1,9,-1
 1091 148 l 1,10,-1
 1091 0 l 1,11,-1
 174 0 l 1,0,-1
EndSplineSet
EndChar

StartChar: F
Encoding: 70 70 39
Width: 1103
GlyphClass: 2
Flags: W
LayerCount: 2
UndoRedoHistory
Layer: 1
Undoes
EndUndoes
Redoes
EndRedoes
EndUndoRedoHistory
Fore
SplineSet
174 0 m 1,0,-1
 174 1456 l 1,1,-1
 1017 1456 l 1,2,-1
 1017 1308 l 1,3,-1
 346 1308 l 1,4,-1
 346 815 l 1,5,-1
 983 815 l 1,6,-1
 983 667 l 1,7,-1
 346 667 l 1,8,-1
 346 0 l 1,9,-1
 174 0 l 1,0,-1
EndSplineSet
EndChar

StartChar: G
Encoding: 71 71 40
Width: 1512
GlyphClass: 2
Flags: W
LayerCount: 2
UndoRedoHistory
Layer: 1
Undoes
EndUndoes
Redoes
EndRedoes
EndUndoRedoHistory
Fore
SplineSet
845 -22 m 0,0,1
 496 -22 496 -22 304 166.5 c 128,-1,2
 112 355 112 355 112 701 c 0,3,4
 112 933 112 933 200.5 1109 c 128,-1,5
 289 1285 289 1285 458.5 1384 c 128,-1,6
 628 1483 628 1483 856 1483 c 0,7,8
 1013 1483 1013 1483 1124.5 1442.5 c 128,-1,9
 1236 1402 1236 1402 1323 1315 c 1,10,-1
 1251 1198 l 1,11,12
 1112 1331 1112 1331 852 1331 c 0,13,14
 678 1331 678 1331 549 1250.5 c 128,-1,15
 420 1170 420 1170 355 1031.5 c 128,-1,16
 290 893 290 893 290 714 c 0,17,18
 290 435 290 435 436.5 282.5 c 128,-1,19
 583 130 583 130 859 130 c 0,20,21
 1056 130 1056 130 1176 178 c 1,22,-1
 1176 608 l 1,23,-1
 815 608 l 1,24,-1
 815 757 l 1,25,-1
 1348 757 l 1,26,-1
 1348 81 l 1,27,28
 1128 -22 1128 -22 845 -22 c 0,0,1
EndSplineSet
EndChar

StartChar: H
Encoding: 72 72 41
Width: 1493
GlyphClass: 2
Flags: W
LayerCount: 2
UndoRedoHistory
Layer: 1
Undoes
EndUndoes
Redoes
EndRedoes
EndUndoRedoHistory
Fore
SplineSet
174 0 m 1,0,-1
 174 1456 l 1,1,-1
 346 1456 l 1,2,-1
 346 822 l 1,3,-1
 1148 822 l 1,4,-1
 1148 1456 l 1,5,-1
 1319 1456 l 1,6,-1
 1319 0 l 1,7,-1
 1148 0 l 1,8,-1
 1148 674 l 1,9,-1
 346 674 l 1,10,-1
 346 0 l 1,11,-1
 174 0 l 1,0,-1
EndSplineSet
EndChar

StartChar: I
Encoding: 73 73 42
Width: 544
GlyphClass: 2
Flags: W
LayerCount: 2
UndoRedoHistory
Layer: 1
Undoes
EndUndoes
Redoes
EndRedoes
EndUndoRedoHistory
Fore
SplineSet
186 0 m 1,0,-1
 186 1456 l 1,1,-1
 358 1456 l 1,2,-1
 358 0 l 1,3,-1
 186 0 l 1,0,-1
EndSplineSet
EndChar

StartChar: J
Encoding: 74 74 43
Width: 1041
GlyphClass: 2
Flags: W
LayerCount: 2
UndoRedoHistory
Layer: 1
Undoes
EndUndoes
Redoes
EndRedoes
EndUndoRedoHistory
Fore
SplineSet
41 -114 m 1,0,1
 93 22 l 1,2,3
 206 -29 206 -29 295 -37 c 128,-1,4
 384 -45 384 -45 449 -10.5 c 128,-1,5
 514 24 514 24 548.5 111 c 128,-1,6
 583 198 583 198 583 334 c 2,7,-1
 583 1314 l 1,8,-1
 164 1314 l 1,9,-1
 164 1456 l 1,10,-1
 1027 1456 l 1,11,-1
 1027 1314 l 1,12,-1
 755 1314 l 1,13,-1
 755 336 l 2,14,15
 755 187 755 187 715 77 c 128,-1,16
 675 -33 675 -33 606 -93 c 128,-1,17
 537 -153 537 -153 446 -176 c 128,-1,18
 355 -199 355 -199 251.5 -182.5 c 128,-1,19
 148 -166 148 -166 41 -114 c 1,0,1
EndSplineSet
EndChar

StartChar: K
Encoding: 75 75 44
Width: 1246
GlyphClass: 2
Flags: W
LayerCount: 2
UndoRedoHistory
Layer: 1
Undoes
EndUndoes
Redoes
EndRedoes
EndUndoRedoHistory
Fore
SplineSet
174 0 m 1,0,-1
 174 1456 l 1,1,-1
 346 1456 l 1,2,-1
 346 796 l 1,3,-1
 990 1456 l 1,4,-1
 1202 1456 l 1,5,-1
 531 764 l 1,6,-1
 1242 0 l 1,7,-1
 1024 0 l 1,8,-1
 346 725 l 1,9,-1
 346 0 l 1,10,-1
 174 0 l 1,0,-1
EndSplineSet
EndChar

StartChar: L
Encoding: 76 76 45
Width: 1069
GlyphClass: 2
Flags: W
LayerCount: 2
UndoRedoHistory
Layer: 1
Undoes
EndUndoes
Redoes
EndRedoes
EndUndoRedoHistory
Fore
SplineSet
174 0 m 1,0,-1
 174 1456 l 1,1,-1
 346 1456 l 1,2,-1
 346 148 l 1,3,-1
 1045 148 l 1,4,-1
 1045 0 l 1,5,-1
 174 0 l 1,0,-1
EndSplineSet
EndChar

StartChar: M
Encoding: 77 77 46
Width: 1944
GlyphClass: 2
Flags: W
LayerCount: 2
UndoRedoHistory
Layer: 1
Undoes
EndUndoes
Redoes
EndRedoes
EndUndoRedoHistory
Fore
SplineSet
174 0 m 1,0,-1
 174 1456 l 1,1,-1
 412 1456 l 1,2,-1
 887 526 l 1,3,-1
 973 322 l 1,4,-1
 1058 529 l 1,5,-1
 1536 1456 l 1,6,-1
 1770 1456 l 1,7,-1
 1770 0 l 1,8,-1
 1602 0 l 1,9,-1
 1602 1251 l 1,10,-1
 1534 1096 l 1,11,-1
 1034 110 l 1,12,-1
 908 110 l 1,13,-1
 404 1108 l 1,14,-1
 344 1268 l 1,15,-1
 344 0 l 1,16,-1
 174 0 l 1,0,-1
EndSplineSet
EndChar

StartChar: N
Encoding: 78 78 47
Width: 1570
GlyphClass: 2
Flags: W
LayerCount: 2
UndoRedoHistory
Layer: 1
Undoes
EndUndoes
Redoes
EndRedoes
EndUndoRedoHistory
Fore
SplineSet
174 0 m 1,0,-1
 174 1456 l 1,1,-1
 380 1456 l 1,2,-1
 1147 342 l 1,3,-1
 1225 215 l 1,4,-1
 1225 1456 l 1,5,-1
 1396 1456 l 1,6,-1
 1396 0 l 1,7,-1
 1188 0 l 1,8,-1
 418 1113 l 1,9,-1
 346 1237 l 1,10,-1
 346 0 l 1,11,-1
 174 0 l 1,0,-1
EndSplineSet
EndChar

StartChar: O
Encoding: 79 79 48
Width: 1660
GlyphClass: 2
Flags: W
LayerCount: 2
UndoRedoHistory
Layer: 1
Undoes
EndUndoes
Redoes
EndRedoes
EndUndoRedoHistory
Fore
SplineSet
830 -25 m 128,-1,1
 692 -25 692 -25 574 15.5 c 128,-1,2
 456 56 456 56 372 127 c 128,-1,3
 288 198 288 198 228.5 293.5 c 128,-1,4
 169 389 169 389 140.5 499 c 128,-1,5
 112 609 112 609 112 728 c 128,-1,6
 112 847 112 847 140.5 957.5 c 128,-1,7
 169 1068 169 1068 228.5 1164 c 128,-1,8
 288 1260 288 1260 372 1331 c 128,-1,9
 456 1402 456 1402 574 1442.5 c 128,-1,10
 692 1483 692 1483 830 1483 c 128,-1,11
 968 1483 968 1483 1086 1442.5 c 128,-1,12
 1204 1402 1204 1402 1288 1331 c 128,-1,13
 1372 1260 1372 1260 1431.5 1164 c 128,-1,14
 1491 1068 1491 1068 1519.5 957.5 c 128,-1,15
 1548 847 1548 847 1548 728 c 128,-1,16
 1548 609 1548 609 1519.5 499 c 128,-1,17
 1491 389 1491 389 1431.5 293.5 c 128,-1,18
 1372 198 1372 198 1288 127 c 128,-1,19
 1204 56 1204 56 1086 15.5 c 128,-1,0
 968 -25 968 -25 830 -25 c 128,-1,1
830 127 m 128,-1,21
 936 127 936 127 1031 166 c 128,-1,22
 1126 205 1126 205 1201 278 c 128,-1,23
 1276 351 1276 351 1320 467.5 c 128,-1,24
 1364 584 1364 584 1364 729 c 128,-1,25
 1364 874 1364 874 1320 990.5 c 128,-1,26
 1276 1107 1276 1107 1201 1180 c 128,-1,27
 1126 1253 1126 1253 1031 1292 c 128,-1,28
 936 1331 936 1331 830 1331 c 128,-1,29
 724 1331 724 1331 629 1292 c 128,-1,30
 534 1253 534 1253 459 1180 c 128,-1,31
 384 1107 384 1107 340 990.5 c 128,-1,32
 296 874 296 874 296 729 c 128,-1,33
 296 584 296 584 340 467.5 c 128,-1,34
 384 351 384 351 459 278 c 128,-1,35
 534 205 534 205 629 166 c 128,-1,20
 724 127 724 127 830 127 c 128,-1,21
EndSplineSet
EndChar

StartChar: P
Encoding: 80 80 49
Width: 1239
GlyphClass: 2
Flags: W
LayerCount: 2
UndoRedoHistory
Layer: 1
Undoes
EndUndoes
Redoes
EndRedoes
EndUndoRedoHistory
Fore
SplineSet
346 736 m 1,0,-1
 607 736 l 2,1,2
 795 736 795 736 891 807 c 128,-1,3
 987 878 987 878 987 1018 c 0,4,5
 987 1168 987 1168 894.5 1238 c 128,-1,6
 802 1308 802 1308 587 1308 c 2,7,-1
 346 1308 l 1,8,-1
 346 736 l 1,0,-1
174 0 m 1,9,-1
 174 1456 l 1,10,-1
 563 1456 l 2,11,12
 883 1456 883 1456 1027 1350.5 c 128,-1,13
 1171 1245 1171 1245 1171 1020 c 0,14,15
 1171 806 1171 806 1024 696.5 c 128,-1,16
 877 587 877 587 588 587 c 2,17,-1
 346 587 l 1,18,-1
 346 0 l 1,19,-1
 174 0 l 1,9,-1
EndSplineSet
EndChar

StartChar: Q
Encoding: 81 81 50
Width: 1648
GlyphClass: 2
Flags: W
LayerCount: 2
UndoRedoHistory
Layer: 1
Undoes
EndUndoes
Redoes
EndRedoes
EndUndoRedoHistory
Fore
SplineSet
823 123 m 0,0,1
 953 123 953 123 1054 168.5 c 128,-1,2
 1155 214 1155 214 1219 297 c 128,-1,3
 1283 380 1283 380 1315.5 491 c 128,-1,4
 1348 602 1348 602 1348 736 c 0,5,6
 1348 914 1348 914 1291 1047 c 128,-1,7
 1234 1180 1234 1180 1114 1257 c 128,-1,8
 994 1334 994 1334 823 1334 c 0,9,10
 654 1334 654 1334 532.5 1256 c 128,-1,11
 411 1178 411 1178 351 1044 c 128,-1,12
 291 910 291 910 291 736 c 0,13,14
 291 605 291 605 326 493.5 c 128,-1,15
 361 382 361 382 427 299.5 c 128,-1,16
 493 217 493 217 594.5 170 c 128,-1,17
 696 123 696 123 823 123 c 0,0,1
1229 -422 m 1,18,19
 1020 -213 1020 -213 927 -13 c 1,20,21
 880 -22 880 -22 822 -22 c 0,22,23
 655 -22 655 -22 520.5 32.5 c 128,-1,24
 386 87 386 87 296.5 186.5 c 128,-1,25
 207 286 207 286 159.5 426 c 128,-1,26
 112 566 112 566 112 736 c 0,27,28
 112 1074 112 1074 305.5 1278.5 c 128,-1,29
 499 1483 499 1483 830 1483 c 128,-1,30
 1161 1483 1161 1483 1348.5 1279.5 c 128,-1,31
 1536 1076 1536 1076 1536 736 c 0,32,33
 1536 472 1536 472 1416 286.5 c 128,-1,34
 1296 101 1296 101 1092 20 c 1,35,36
 1174 -149 1174 -149 1341 -304 c 1,37,-1
 1229 -422 l 1,18,19
EndSplineSet
EndChar

StartChar: R
Encoding: 82 82 51
Width: 1320
GlyphClass: 2
Flags: W
LayerCount: 2
UndoRedoHistory
Layer: 1
Undoes
EndUndoes
Redoes
EndRedoes
EndUndoRedoHistory
Fore
SplineSet
346 799 m 1,0,-1
 612 799 l 2,1,2
 690 799 690 799 754 812 c 128,-1,3
 818 825 818 825 872 853.5 c 128,-1,4
 926 882 926 882 956 934 c 128,-1,5
 986 986 986 986 986 1058 c 0,6,7
 986 1117 986 1117 967.5 1161.5 c 128,-1,8
 949 1206 949 1206 917.5 1233.5 c 128,-1,9
 886 1261 886 1261 838 1278 c 128,-1,10
 790 1295 790 1295 739 1301.5 c 128,-1,11
 688 1308 688 1308 623 1308 c 2,12,-1
 346 1308 l 1,13,-1
 346 799 l 1,0,-1
174 0 m 1,14,-1
 174 1456 l 1,15,-1
 530 1456 l 2,16,17
 608 1456 608 1456 671 1452.5 c 128,-1,18
 734 1449 734 1449 802.5 1439 c 128,-1,19
 871 1429 871 1429 922.5 1411.5 c 128,-1,20
 974 1394 974 1394 1022 1365 c 128,-1,21
 1070 1336 1070 1336 1100.5 1296.5 c 128,-1,22
 1131 1257 1131 1257 1149.5 1200.5 c 128,-1,23
 1168 1144 1168 1144 1168 1074 c 0,24,25
 1168 929 1168 929 1081.5 840 c 128,-1,26
 995 751 995 751 858 715 c 1,27,28
 949 684 949 684 1008 594 c 0,29,30
 1039 545 1039 545 1093 410 c 2,31,-1
 1256 0 l 1,32,-1
 1068 0 l 1,33,-1
 915 419 l 2,34,35
 897 468 897 468 882 499.5 c 128,-1,36
 867 531 867 531 843.5 563 c 128,-1,37
 820 595 820 595 790.5 612.5 c 128,-1,38
 761 630 761 630 717.5 641 c 128,-1,39
 674 652 674 652 616 652 c 2,40,-1
 346 652 l 1,41,-1
 346 0 l 1,42,-1
 174 0 l 1,14,-1
EndSplineSet
EndChar

StartChar: S
Encoding: 83 83 52
Width: 1229
GlyphClass: 2
Flags: W
LayerCount: 2
UndoRedoHistory
Layer: 1
Undoes
EndUndoes
Redoes
EndRedoes
EndUndoRedoHistory
Fore
SplineSet
664 -22 m 0,0,1
 530 -22 530 -22 388 17.5 c 128,-1,2
 246 57 246 57 146 123 c 1,3,-1
 174 289 l 1,4,5
 270 214 270 214 403.5 168.5 c 128,-1,6
 537 123 537 123 649 123 c 0,7,8
 800 123 800 123 875.5 196 c 128,-1,9
 951 269 951 269 951 401 c 0,10,11
 951 443 951 443 939 472 c 128,-1,12
 927 501 927 501 888.5 535 c 128,-1,13
 850 569 850 569 771 602 c 128,-1,14
 692 635 692 635 566 671 c 0,15,16
 439 707 439 707 355 751 c 128,-1,17
 271 795 271 795 223.5 850 c 128,-1,18
 176 905 176 905 157.5 966.5 c 128,-1,19
 139 1028 139 1028 141 1109 c 0,20,21
 144 1280 144 1280 279.5 1381.5 c 128,-1,22
 415 1483 415 1483 636 1483 c 0,23,24
 887 1483 887 1483 1085 1359 c 1,25,-1
 1033 1218 l 1,26,27
 947 1271 947 1271 847 1302.5 c 128,-1,28
 747 1334 747 1334 656 1334 c 0,29,30
 333 1334 333 1334 324 1120 c 0,31,32
 322 1065 322 1065 334 1026.5 c 128,-1,33
 346 988 346 988 383 950.5 c 128,-1,34
 420 913 420 913 491 881.5 c 128,-1,35
 562 850 562 850 676 817 c 0,36,37
 814 777 814 777 906 732 c 128,-1,38
 998 687 998 687 1047 633.5 c 128,-1,39
 1096 580 1096 580 1115.5 524 c 128,-1,40
 1135 468 1135 468 1135 395 c 0,41,42
 1135 307 1135 307 1106.5 233 c 128,-1,43
 1078 159 1078 159 1022 101 c 128,-1,44
 966 43 966 43 874.5 10.5 c 128,-1,45
 783 -22 783 -22 664 -22 c 0,0,1
EndSplineSet
EndChar

StartChar: T
Encoding: 84 84 53
Width: 1161
GlyphClass: 2
Flags: W
LayerCount: 2
UndoRedoHistory
Layer: 1
Undoes
EndUndoes
Redoes
EndRedoes
EndUndoRedoHistory
Fore
SplineSet
493 0 m 1,0,-1
 493 1308 l 1,1,-1
 24 1308 l 1,2,-1
 24 1456 l 1,3,-1
 1137 1456 l 1,4,-1
 1137 1308 l 1,5,-1
 665 1308 l 1,6,-1
 665 0 l 1,7,-1
 493 0 l 1,0,-1
EndSplineSet
EndChar

StartChar: U
Encoding: 85 85 54
Width: 1473
GlyphClass: 2
Flags: W
LayerCount: 2
UndoRedoHistory
Layer: 1
Undoes
EndUndoes
Redoes
EndRedoes
EndUndoRedoHistory
Fore
SplineSet
749 -22 m 0,0,1
 164 -22 164 -22 164 541 c 2,2,-1
 164 1456 l 1,3,-1
 336 1456 l 1,4,-1
 336 546 l 2,5,6
 336 123 336 123 747 123 c 0,7,8
 935 123 935 123 1036.5 233 c 128,-1,9
 1138 343 1138 343 1138 539 c 2,10,-1
 1138 1456 l 1,11,-1
 1309 1456 l 1,12,-1
 1309 551 l 1,13,14
 1307 279 1307 279 1162.5 128.5 c 128,-1,15
 1018 -22 1018 -22 749 -22 c 0,0,1
EndSplineSet
EndChar

StartChar: V
Encoding: 86 86 55
Width: 1336
GlyphClass: 2
Flags: W
LayerCount: 2
UndoRedoHistory
Layer: 1
Undoes
EndUndoes
Redoes
EndRedoes
EndUndoRedoHistory
Fore
SplineSet
581 1 m 1,0,-1
 13 1456 l 1,1,-1
 201 1456 l 1,2,-1
 626 325 l 1,3,-1
 672 184 l 1,4,-1
 720 324 l 1,5,-1
 1141 1456 l 1,6,-1
 1324 1456 l 1,7,-1
 767 1 l 1,8,-1
 581 1 l 1,0,-1
EndSplineSet
EndChar

StartChar: W
Encoding: 87 87 56
Width: 2095
GlyphClass: 2
Flags: W
LayerCount: 2
UndoRedoHistory
Layer: 1
Undoes
EndUndoes
Redoes
EndRedoes
EndUndoRedoHistory
Fore
SplineSet
1442 0 m 1,0,-1
 1049 1247 l 1,1,-1
 654 1 l 1,2,-1
 441 1 l 1,3,-1
 18 1456 l 1,4,-1
 204 1456 l 1,5,-1
 514 349 l 1,6,-1
 552 189 l 1,7,-1
 602 349 l 1,8,-1
 964 1456 l 1,9,-1
 1145 1456 l 1,10,-1
 1504 345 l 1,11,-1
 1550 190 l 1,12,-1
 1592 349 l 1,13,-1
 1897 1456 l 1,14,-1
 2077 1456 l 1,15,-1
 1654 0 l 1,16,-1
 1442 0 l 1,0,-1
EndSplineSet
EndChar

StartChar: X
Encoding: 88 88 57
Width: 1304
GlyphClass: 2
Flags: W
LayerCount: 2
UndoRedoHistory
Layer: 1
Undoes
EndUndoes
Redoes
EndRedoes
EndUndoRedoHistory
Fore
SplineSet
11 0 m 1,0,-1
 548 741 l 1,1,-1
 50 1456 l 1,2,-1
 258 1456 l 1,3,-1
 662 854 l 1,4,-1
 1079 1456 l 1,5,-1
 1275 1456 l 1,6,-1
 764 742 l 1,7,-1
 1285 0 l 1,8,-1
 1084 0 l 1,9,-1
 648 623 l 1,10,-1
 215 0 l 1,11,-1
 11 0 l 1,0,-1
EndSplineSet
EndChar

StartChar: Y
Encoding: 89 89 58
Width: 1256
GlyphClass: 2
Flags: W
LayerCount: 2
UndoRedoHistory
Layer: 1
Undoes
EndUndoes
Redoes
EndRedoes
EndUndoRedoHistory
Fore
SplineSet
537 0 m 1,0,-1
 537 582 l 1,1,-1
 4 1456 l 1,2,-1
 195 1456 l 1,3,-1
 626 727 l 1,4,-1
 1061 1456 l 1,5,-1
 1252 1456 l 1,6,-1
 709 585 l 1,7,-1
 709 0 l 1,8,-1
 537 0 l 1,0,-1
EndSplineSet
EndChar

StartChar: Z
Encoding: 90 90 59
Width: 1222
GlyphClass: 2
Flags: W
LayerCount: 2
UndoRedoHistory
Layer: 1
Undoes
EndUndoes
Redoes
EndRedoes
EndUndoRedoHistory
Fore
SplineSet
92 0 m 1,0,-1
 92 92 l 1,1,-1
 922 1308 l 1,2,-1
 124 1308 l 1,3,-1
 124 1456 l 1,4,-1
 1154 1456 l 1,5,-1
 1154 1368 l 1,6,-1
 320 148 l 1,7,-1
 1146 148 l 1,8,-1
 1146 0 l 1,9,-1
 92 0 l 1,0,-1
EndSplineSet
EndChar

StartChar: bracketleft
Encoding: 91 91 60
Width: 628
GlyphClass: 2
Flags: W
LayerCount: 2
UndoRedoHistory
Layer: 1
Undoes
EndUndoes
Redoes
EndRedoes
EndUndoRedoHistory
Fore
SplineSet
191 -259 m 1,0,-1
 191 1451 l 1,1,-1
 547 1451 l 1,2,-1
 547 1329 l 1,3,-1
 354 1329 l 1,4,-1
 354 -137 l 1,5,-1
 548 -137 l 1,6,-1
 548 -259 l 1,7,-1
 191 -259 l 1,0,-1
EndSplineSet
EndChar

StartChar: backslash
Encoding: 92 92 61
Width: 706
GlyphClass: 2
Flags: W
LayerCount: 2
UndoRedoHistory
Layer: 1
Undoes
EndUndoes
Redoes
EndRedoes
EndUndoRedoHistory
Fore
SplineSet
594 -215 m 1,0,-1
 -47 1451 l 1,1,-1
 120 1451 l 1,2,-1
 757 -215 l 1,3,-1
 594 -215 l 1,0,-1
EndSplineSet
EndChar

StartChar: bracketright
Encoding: 93 93 62
Width: 628
GlyphClass: 2
Flags: W
LayerCount: 2
UndoRedoHistory
Layer: 1
Undoes
EndUndoes
Redoes
EndRedoes
EndUndoRedoHistory
Fore
SplineSet
87 -259 m 1,0,-1
 87 -137 l 1,1,-1
 278 -137 l 1,2,-1
 278 1329 l 1,3,-1
 88 1329 l 1,4,-1
 78 1451 l 1,5,-1
 442 1451 l 1,6,-1
 442 -259 l 1,7,-1
 87 -259 l 1,0,-1
EndSplineSet
EndChar

StartChar: asciicircum
Encoding: 94 94 63
Width: 1457
GlyphClass: 2
Flags: W
LayerCount: 2
UndoRedoHistory
Layer: 1
Undoes
EndUndoes
Redoes
EndRedoes
EndUndoRedoHistory
Fore
SplineSet
184 550 m 1,0,-1
 665 1432 l 1,1,-1
 766 1432 l 1,2,-1
 1255 550 l 1,3,-1
 1100 550 l 1,4,-1
 714 1260 l 1,5,-1
 340 550 l 1,6,-1
 184 550 l 1,0,-1
EndSplineSet
EndChar

StartChar: underscore
Encoding: 95 95 64
Width: 998
GlyphClass: 2
Flags: W
LayerCount: 2
UndoRedoHistory
Layer: 1
Undoes
EndUndoes
Redoes
EndRedoes
EndUndoRedoHistory
Fore
SplineSet
-5 -273 m 1,0,-1
 -5 -145 l 1,1,-1
 998 -145 l 1,2,-1
 998 -273 l 1,3,-1
 -5 -273 l 1,0,-1
EndSplineSet
EndChar

StartChar: grave
Encoding: 96 96 65
Width: 593
GlyphClass: 2
Flags: W
LayerCount: 2
UndoRedoHistory
Layer: 1
Undoes
EndUndoes
Redoes
EndRedoes
EndUndoRedoHistory
Fore
SplineSet
333 1172 m 1,0,-1
 1 1492 l 1,1,-1
 215 1492 l 1,2,-1
 462 1172 l 1,3,-1
 333 1172 l 1,0,-1
EndSplineSet
EndChar

StartChar: a
Encoding: 97 97 66
Width: 1205
GlyphClass: 2
Flags: W
LayerCount: 2
UndoRedoHistory
Layer: 1
Undoes
EndUndoes
Redoes
EndRedoes
EndUndoRedoHistory
Fore
SplineSet
531 116 m 0,0,1
 677 116 677 116 768 211.5 c 128,-1,2
 859 307 859 307 859 453 c 2,3,-1
 859 872 l 1,4,5
 789 907 789 907 663 907 c 0,6,7
 482 907 482 907 371 780.5 c 128,-1,8
 260 654 260 654 260 448 c 0,9,10
 260 299 260 299 334.5 207.5 c 128,-1,11
 409 116 409 116 531 116 c 0,0,1
506 -22 m 0,12,13
 319 -22 319 -22 204.5 104.5 c 128,-1,14
 90 231 90 231 90 438 c 0,15,16
 90 713 90 713 248.5 880.5 c 128,-1,17
 407 1048 407 1048 666 1048 c 0,18,19
 767 1048 767 1048 865 1024.5 c 128,-1,20
 963 1001 963 1001 1023 962 c 1,21,-1
 1023 286 l 2,22,23
 1023 220 1023 220 1057.5 179.5 c 128,-1,24
 1092 139 1092 139 1148 139 c 1,25,-1
 1114 -4 l 1,26,27
 1027 -4 1027 -4 963 43 c 128,-1,28
 899 90 899 90 882 166 c 1,29,30
 831 81 831 81 727.5 29.5 c 128,-1,31
 624 -22 624 -22 506 -22 c 0,12,13
EndSplineSet
EndChar

StartChar: b
Encoding: 98 98 67
Width: 1210
GlyphClass: 2
Flags: W
LayerCount: 2
UndoRedoHistory
Layer: 1
Undoes
EndUndoes
Redoes
EndRedoes
EndUndoRedoHistory
Fore
SplineSet
615 116 m 0,0,1
 727 116 727 116 804.5 177.5 c 128,-1,2
 882 239 882 239 916 334.5 c 128,-1,3
 950 430 950 430 950 550 c 0,4,5
 950 722 950 722 876.5 813 c 128,-1,6
 803 904 803 904 686 904 c 0,7,8
 595 904 595 904 498 848 c 128,-1,9
 401 792 401 792 317 686 c 1,10,-1
 317 156 l 1,11,-1
 358 146 l 2,12,13
 398 136 398 136 472.5 126 c 128,-1,14
 547 116 547 116 615 116 c 0,0,1
612 -22 m 0,15,16
 544 -22 544 -22 470.5 -12 c 128,-1,17
 397 -2 397 -2 345.5 10.5 c 128,-1,18
 294 23 294 23 243.5 39 c 128,-1,19
 193 55 193 55 177 61 c 128,-1,20
 161 67 161 67 152 71 c 1,21,-1
 152 1495 l 1,22,-1
 317 1525 l 1,23,-1
 317 851 l 1,24,25
 402 948 402 948 502.5 996.5 c 128,-1,26
 603 1045 603 1045 704 1045 c 0,27,28
 788 1045 788 1045 863 1011 c 128,-1,29
 938 977 938 977 995.5 915 c 128,-1,30
 1053 853 1053 853 1086.5 757 c 128,-1,31
 1120 661 1120 661 1120 545 c 0,32,33
 1120 293 1120 293 983 135.5 c 128,-1,34
 846 -22 846 -22 612 -22 c 0,15,16
EndSplineSet
EndChar

StartChar: c
Encoding: 99 99 68
Width: 1019
GlyphClass: 2
Flags: W
LayerCount: 2
UndoRedoHistory
Layer: 1
Undoes
EndUndoes
Redoes
EndRedoes
EndUndoRedoHistory
Fore
SplineSet
634 -23 m 0,0,1
 527 -23 527 -23 430 11 c 128,-1,2
 333 45 333 45 256.5 109.5 c 128,-1,3
 180 174 180 174 135 275.5 c 128,-1,4
 90 377 90 377 90 503 c 128,-1,5
 90 629 90 629 137 734.5 c 128,-1,6
 184 840 184 840 262 908 c 128,-1,7
 340 976 340 976 437.5 1013 c 128,-1,8
 535 1050 535 1050 640 1050 c 0,9,10
 847 1050 847 1050 983 920 c 1,11,-1
 923 799 l 1,12,13
 812 906 812 906 656 906 c 0,14,15
 553 906 553 906 464.5 861.5 c 128,-1,16
 376 817 376 817 318 724.5 c 128,-1,17
 260 632 260 632 260 508 c 0,18,19
 260 411 260 411 292.5 335 c 128,-1,20
 325 259 325 259 380.5 213 c 128,-1,21
 436 167 436 167 505 143 c 128,-1,22
 574 119 574 119 651 119 c 0,23,24
 734 119 734 119 814.5 150 c 128,-1,25
 895 181 895 181 956 238 c 1,26,-1
 1013 112 l 1,27,28
 846 -23 846 -23 634 -23 c 0,0,1
EndSplineSet
EndChar

StartChar: d
Encoding: 100 100 69
Width: 1226
GlyphClass: 2
Flags: W
LayerCount: 2
UndoRedoHistory
Layer: 1
Undoes
EndUndoes
Redoes
EndRedoes
EndUndoRedoHistory
Fore
SplineSet
579 116 m 0,0,1
 666 116 666 116 730.5 147.5 c 128,-1,2
 795 179 795 179 833 236.5 c 128,-1,3
 871 294 871 294 889 368 c 128,-1,4
 907 442 907 442 907 534 c 2,5,-1
 907 744 l 1,6,7
 851 818 851 818 763 862.5 c 128,-1,8
 675 907 675 907 585 907 c 0,9,10
 423 907 423 907 341.5 796.5 c 128,-1,11
 260 686 260 686 260 507 c 0,12,13
 260 333 260 333 349 224.5 c 128,-1,14
 438 116 438 116 579 116 c 0,0,1
561 -22 m 0,15,16
 349 -22 349 -22 219.5 121.5 c 128,-1,17
 90 265 90 265 90 501 c 0,18,19
 90 658 90 658 142.5 780 c 128,-1,20
 195 902 195 902 303 975 c 128,-1,21
 411 1048 411 1048 561 1048 c 0,22,23
 661 1048 661 1048 742.5 1017.5 c 128,-1,24
 824 987 824 987 906 917 c 1,25,-1
 906 1506 l 1,26,-1
 1071 1526 l 1,27,-1
 1071 390 l 2,28,29
 1071 236 1071 236 1094 153.5 c 128,-1,30
 1117 71 1117 71 1159 10 c 1,31,-1
 997 -13 l 1,32,33
 967 22 967 22 944.5 75.5 c 128,-1,34
 922 129 922 129 919 177 c 1,35,36
 874 84 874 84 778 31 c 128,-1,37
 682 -22 682 -22 561 -22 c 0,15,16
EndSplineSet
EndChar

StartChar: e
Encoding: 101 101 70
Width: 1070
GlyphClass: 2
Flags: W
LayerCount: 2
UndoRedoHistory
Layer: 1
Undoes
EndUndoes
Redoes
EndRedoes
EndUndoRedoHistory
Fore
SplineSet
273 490 m 1,0,1
 373 504 373 504 447 519 c 128,-1,2
 521 534 521 534 591 556 c 128,-1,3
 661 578 661 578 705 605 c 128,-1,4
 749 632 749 632 775 670 c 128,-1,5
 801 708 801 708 801 755 c 0,6,7
 801 824 801 824 750.5 865.5 c 128,-1,8
 700 907 700 907 611 907 c 0,9,10
 547 907 547 907 487.5 883.5 c 128,-1,11
 428 860 428 860 378.5 816 c 128,-1,12
 329 772 329 772 299.5 700 c 128,-1,13
 270 628 270 628 270 539 c 0,14,15
 270 514 270 514 273 490 c 1,0,1
619 -22 m 0,16,17
 387 -22 387 -22 238.5 125.5 c 128,-1,18
 90 273 90 273 90 516 c 0,19,20
 90 622 90 622 125.5 718 c 128,-1,21
 161 814 161 814 226 887.5 c 128,-1,22
 291 961 291 961 390.5 1004.5 c 128,-1,23
 490 1048 490 1048 610 1048 c 0,24,25
 769 1048 769 1048 866.5 963.5 c 128,-1,26
 964 879 964 879 964 751 c 0,27,28
 964 679 964 679 929.5 622.5 c 128,-1,29
 895 566 895 566 838 527 c 128,-1,30
 781 488 781 488 690.5 457.5 c 128,-1,31
 600 427 600 427 506 408 c 128,-1,32
 412 389 412 389 285 371 c 1,33,34
 315 259 315 259 410.5 187.5 c 128,-1,35
 506 116 506 116 619 116 c 0,36,37
 719 116 719 116 807 154 c 128,-1,38
 895 192 895 192 948 252 c 1,39,-1
 1031 146 l 1,40,41
 955 68 955 68 846.5 23 c 128,-1,42
 738 -22 738 -22 619 -22 c 0,16,17
EndSplineSet
EndChar

StartChar: f
Encoding: 102 102 71
Width: 699
GlyphClass: 2
Flags: W
LayerCount: 2
UndoRedoHistory
Layer: 1
Undoes
EndUndoes
Redoes
EndRedoes
EndUndoRedoHistory
Fore
SplineSet
91 -449 m 1,0,1
 70 -328 l 1,2,3
 159 -306 159 -306 206 -230.5 c 128,-1,4
 253 -155 253 -155 253 -34 c 2,5,-1
 253 919 l 1,6,-1
 51 919 l 1,7,-1
 51 1026 l 1,8,-1
 253 1026 l 1,9,-1
 253 1170 l 2,10,11
 253 1360 253 1360 321.5 1446 c 128,-1,12
 390 1532 390 1532 541 1532 c 0,13,14
 623 1532 623 1532 719 1499 c 1,15,-1
 695 1392 l 1,16,17
 625 1409 625 1409 584 1409 c 0,18,19
 496 1409 496 1409 456.5 1357.5 c 128,-1,20
 417 1306 417 1306 417 1193 c 2,21,-1
 417 1026 l 1,22,-1
 665 1026 l 1,23,-1
 665 919 l 1,24,-1
 417 919 l 1,25,-1
 417 -11 l 2,26,27
 417 -206 417 -206 340.5 -316.5 c 128,-1,28
 264 -427 264 -427 91 -449 c 1,0,1
EndSplineSet
EndChar

StartChar: g
Encoding: 103 103 72
Width: 1143
GlyphClass: 2
Flags: W
LayerCount: 2
UndoRedoHistory
Layer: 1
Undoes
EndUndoes
Redoes
EndRedoes
EndUndoRedoHistory
Fore
SplineSet
531 116 m 0,0,1
 677 116 677 116 768 211.5 c 128,-1,2
 859 307 859 307 859 453 c 2,3,-1
 859 872 l 1,4,5
 789 907 789 907 663 907 c 0,6,7
 482 907 482 907 371 780.5 c 128,-1,8
 260 654 260 654 260 448 c 0,9,10
 260 299 260 299 334.5 207.5 c 128,-1,11
 409 116 409 116 531 116 c 0,0,1
525 -494 m 0,12,13
 356 -494 356 -494 189 -433 c 1,14,-1
 208 -280 l 1,15,16
 277 -314 277 -314 360.5 -335.5 c 128,-1,17
 444 -357 444 -357 511 -357 c 0,18,19
 668 -357 668 -357 763.5 -271 c 128,-1,20
 859 -185 859 -185 859 -44 c 2,21,-1
 859 133 l 1,22,23
 802 62 802 62 707 20 c 128,-1,24
 612 -22 612 -22 506 -22 c 0,25,26
 319 -22 319 -22 204.5 104.5 c 128,-1,27
 90 231 90 231 90 438 c 0,28,29
 90 713 90 713 248.5 880.5 c 128,-1,30
 407 1048 407 1048 666 1048 c 0,31,32
 767 1048 767 1048 865 1024.5 c 128,-1,33
 963 1001 963 1001 1023 962 c 1,34,-1
 1023 -23 l 2,35,36
 1023 -235 1023 -235 886 -364.5 c 128,-1,37
 749 -494 749 -494 525 -494 c 0,12,13
EndSplineSet
EndChar

StartChar: h
Encoding: 104 104 73
Width: 1222
GlyphClass: 2
Flags: W
LayerCount: 2
UndoRedoHistory
Layer: 1
Undoes
EndUndoes
Redoes
EndRedoes
EndUndoRedoHistory
Fore
SplineSet
1130 -19 m 1,0,1
 973 -42 973 -42 918 28 c 128,-1,2
 863 98 863 98 865 284 c 2,3,-1
 867 562 l 1,4,5
 867 744 867 744 816.5 825.5 c 128,-1,6
 766 907 766 907 651 907 c 0,7,8
 592 907 592 907 534.5 884.5 c 128,-1,9
 477 862 477 862 427 818.5 c 128,-1,10
 377 775 377 775 346.5 700.5 c 128,-1,11
 316 626 316 626 316 532 c 2,12,-1
 316 0 l 1,13,-1
 152 0 l 1,14,-1
 152 1506 l 1,15,-1
 316 1526 l 1,16,-1
 316 875 l 1,17,18
 367 953 367 953 469 1000.5 c 128,-1,19
 571 1048 571 1048 686 1048 c 0,20,21
 863 1048 863 1048 948.5 931.5 c 128,-1,22
 1034 815 1034 815 1032 565 c 2,23,-1
 1030 320 l 2,24,25
 1030 313 1030 313 1030 298 c 0,26,27
 1030 290 1030 290 1030 286 c 0,28,29
 1029 177 1029 177 1044 147 c 0,30,31
 1066 103 1066 103 1146 119 c 1,32,-1
 1130 -19 l 1,0,1
EndSplineSet
EndChar

StartChar: i
Encoding: 105 105 74
Width: 603
GlyphClass: 2
Flags: W
LayerCount: 2
UndoRedoHistory
Layer: 1
Undoes
EndUndoes
Redoes
EndRedoes
EndUndoRedoHistory
Fore
SplineSet
251 1245 m 128,-1,1
 207 1245 207 1245 175.5 1271.5 c 128,-1,2
 144 1298 144 1298 144 1345 c 128,-1,3
 144 1392 144 1392 176 1418 c 128,-1,4
 208 1444 208 1444 252 1444 c 128,-1,5
 296 1444 296 1444 327.5 1417.5 c 128,-1,6
 359 1391 359 1391 359 1344 c 128,-1,7
 359 1297 359 1297 327 1271 c 128,-1,0
 295 1245 295 1245 251 1245 c 128,-1,1
625 26 m 1,8,9
 536 -10 536 -10 455 -16 c 128,-1,10
 374 -22 374 -22 309 2.5 c 128,-1,11
 244 27 244 27 205.5 93.5 c 128,-1,12
 167 160 167 160 167 262 c 2,13,-1
 167 1026 l 1,14,-1
 331 1026 l 1,15,-1
 331 267 l 2,16,17
 331 211 331 211 346.5 176 c 128,-1,18
 362 141 362 141 386.5 126.5 c 128,-1,19
 411 112 411 112 448.5 111.5 c 128,-1,20
 486 111 486 111 521 119.5 c 128,-1,21
 556 128 556 128 602 145 c 1,22,-1
 625 26 l 1,8,9
EndSplineSet
EndChar

StartChar: j
Encoding: 106 106 75
Width: 539
GlyphClass: 2
Flags: W
LayerCount: 2
UndoRedoHistory
Layer: 1
Undoes
EndUndoes
Redoes
EndRedoes
EndUndoRedoHistory
Fore
SplineSet
290 1245 m 128,-1,1
 246 1245 246 1245 214.5 1271.5 c 128,-1,2
 183 1298 183 1298 183 1345 c 128,-1,3
 183 1392 183 1392 215 1418 c 128,-1,4
 247 1444 247 1444 291 1444 c 128,-1,5
 335 1444 335 1444 366.5 1417.5 c 128,-1,6
 398 1391 398 1391 398 1344 c 128,-1,7
 398 1297 398 1297 366 1271 c 128,-1,0
 334 1245 334 1245 290 1245 c 128,-1,1
-162 -435 m 1,8,9
 -143 -307 l 1,10,11
 -85 -326 -85 -326 -37 -331 c 128,-1,12
 11 -336 11 -336 57.5 -320.5 c 128,-1,13
 104 -305 104 -305 136 -266.5 c 128,-1,14
 168 -228 168 -228 187.5 -153 c 128,-1,15
 207 -78 207 -78 207 29 c 2,16,-1
 207 1026 l 1,17,-1
 371 1026 l 1,18,-1
 371 35 l 2,19,20
 371 -97 371 -97 343 -195 c 128,-1,21
 315 -293 315 -293 266.5 -351 c 128,-1,22
 218 -409 218 -409 150 -437 c 128,-1,23
 82 -465 82 -465 4 -463.5 c 128,-1,24
 -74 -462 -74 -462 -162 -435 c 1,8,9
EndSplineSet
EndChar

StartChar: k
Encoding: 107 107 76
Width: 1107
GlyphClass: 2
Flags: W
LayerCount: 2
UndoRedoHistory
Layer: 1
Undoes
EndUndoes
Redoes
EndRedoes
EndUndoRedoHistory
Fore
SplineSet
1064 -35 m 1,0,1
 980 -20 980 -20 900 36.5 c 128,-1,2
 820 93 820 93 763 189 c 2,3,-1
 602 458 l 1,4,-1
 297 27 l 1,5,6
 271 -5 271 -5 236.5 -13 c 128,-1,7
 202 -21 202 -21 177 -1 c 128,-1,8
 152 19 152 19 152 60 c 2,9,-1
 152 1496 l 1,10,-1
 316 1526 l 1,11,-1
 316 292 l 1,12,-1
 832 1026 l 1,13,-1
 981 976 l 1,14,-1
 694 580 l 1,15,-1
 891 270 l 2,16,17
 1007 88 1007 88 1153 89 c 1,18,-1
 1064 -35 l 1,0,1
EndSplineSet
EndChar

StartChar: l
Encoding: 108 108 77
Width: 686
GlyphClass: 2
Flags: W
LayerCount: 2
UndoRedoHistory
Layer: 1
Undoes
EndUndoes
Redoes
EndRedoes
EndUndoRedoHistory
Fore
SplineSet
720 35 m 1,0,1
 618 -9 618 -9 519.5 -15.5 c 128,-1,2
 421 -22 421 -22 342.5 7.5 c 128,-1,3
 264 37 264 37 216 112.5 c 128,-1,4
 168 188 168 188 168 300 c 2,5,-1
 168 1496 l 1,6,-1
 332 1526 l 1,7,-1
 332 292 l 2,8,9
 332 217 332 217 363.5 172 c 128,-1,10
 395 127 395 127 448 115.5 c 128,-1,11
 501 104 501 104 563.5 113.5 c 128,-1,12
 626 123 626 123 695 152 c 1,13,-1
 720 35 l 1,0,1
EndSplineSet
EndChar

StartChar: m
Encoding: 109 109 78
Width: 1943
GlyphClass: 2
Flags: W
LayerCount: 2
UndoRedoHistory
Layer: 1
Undoes
EndUndoes
Redoes
EndRedoes
EndUndoRedoHistory
Fore
SplineSet
1893 -19 m 1,0,1
 1731 -28 1731 -28 1659.5 49 c 128,-1,2
 1588 126 1588 126 1590 304 c 1,3,-1
 1590 562 l 2,4,5
 1590 745 1590 745 1541 826 c 128,-1,6
 1492 907 1492 907 1378 907 c 0,7,8
 1319 907 1319 907 1262 884.5 c 128,-1,9
 1205 862 1205 862 1156 818.5 c 0,10,11
 1107 774 1107 774 1077 700 c 1,12,-1
 1047 0 l 1,13,-1
 882 0 l 1,14,-1
 882 562 l 2,15,16
 882 745 882 745 833 826 c 128,-1,17
 784 907 784 907 669 907 c 0,18,19
 613 907 613 907 559 886.5 c 128,-1,20
 505 866 505 866 458 826 c 128,-1,21
 411 786 411 786 379.5 718.5 c 128,-1,22
 348 651 348 651 343 565 c 1,23,-1
 343 0 l 1,24,-1
 179 0 l 1,25,-1
 179 699 l 2,26,27
 179 844 179 844 64 944 c 1,28,-1
 206 1026 l 1,29,30
 243 997 243 997 277 947 c 128,-1,31
 311 897 311 897 318 851 c 1,32,33
 378 947 378 947 475 997.5 c 128,-1,34
 572 1048 572 1048 694 1048 c 0,35,36
 952 1048 952 1048 1020 811 c 1,37,38
 1039 871 1039 871 1080 918 c 128,-1,39
 1121 965 1121 965 1173 992.5 c 128,-1,40
 1225 1020 1225 1020 1281 1034 c 128,-1,41
 1337 1048 1337 1048 1393 1048 c 0,42,43
 1759 1048 1759 1048 1755 565 c 1,44,-1
 1755 340 l 1,45,46
 1754 216 1754 216 1784 166.5 c 128,-1,47
 1814 117 1814 117 1909 119 c 1,48,-1
 1893 -19 l 1,0,1
EndSplineSet
EndChar

StartChar: n
Encoding: 110 110 79
Width: 1248
GlyphClass: 2
Flags: W
LayerCount: 2
UndoRedoHistory
Layer: 1
Undoes
EndUndoes
Redoes
EndRedoes
EndUndoRedoHistory
Fore
SplineSet
1198 -19 m 1,0,1
 1107 -23 1107 -23 1046 -2.5 c 128,-1,2
 985 18 985 18 951.5 65.5 c 128,-1,3
 918 113 918 113 904.5 176.5 c 128,-1,4
 891 240 891 240 891 334 c 2,5,-1
 891 576 l 2,6,7
 891 753 891 753 833.5 830 c 128,-1,8
 776 907 776 907 657 907 c 0,9,10
 537 907 537 907 445.5 820 c 128,-1,11
 354 733 354 733 343 565 c 1,12,-1
 343 0 l 1,13,-1
 179 0 l 1,14,-1
 179 699 l 2,15,16
 179 778 179 778 143.5 842.5 c 128,-1,17
 108 907 108 907 64 944 c 1,18,-1
 204 1026 l 1,19,20
 242 998 242 998 276.5 948 c 128,-1,21
 311 898 311 898 318 851 c 1,22,23
 363 940 363 940 460.5 994 c 128,-1,24
 558 1048 558 1048 679 1048 c 0,25,26
 861 1048 861 1048 958 938 c 128,-1,27
 1055 828 1055 828 1055 584 c 2,28,-1
 1055 320 l 2,29,30
 1055 206 1055 206 1091.5 161 c 128,-1,31
 1128 116 1128 116 1214 119 c 1,32,-1
 1198 -19 l 1,0,1
EndSplineSet
EndChar

StartChar: o
Encoding: 111 111 80
Width: 1230
GlyphClass: 2
Flags: W
LayerCount: 2
UndoRedoHistory
Layer: 1
Undoes
EndUndoes
Redoes
EndRedoes
EndUndoRedoHistory
Fore
SplineSet
622 -22 m 0,0,1
 383 -22 383 -22 237.5 124.5 c 128,-1,2
 92 271 92 271 92 511 c 0,3,4
 92 752 92 752 237.5 900 c 128,-1,5
 383 1048 383 1048 621 1048 c 0,6,7
 856 1048 856 1048 999 901 c 128,-1,8
 1142 754 1142 754 1142 513 c 128,-1,9
 1142 272 1142 272 999 125 c 128,-1,10
 856 -22 856 -22 622 -22 c 0,0,1
622 116 m 0,11,12
 780 116 780 116 876 224.5 c 128,-1,13
 972 333 972 333 972 511 c 0,14,15
 972 690 972 690 875.5 798.5 c 128,-1,16
 779 907 779 907 621 907 c 0,17,18
 460 907 460 907 361 797.5 c 128,-1,19
 262 688 262 688 262 509 c 0,20,21
 262 332 262 332 361 224 c 128,-1,22
 460 116 460 116 622 116 c 0,11,12
EndSplineSet
EndChar

StartChar: p
Encoding: 112 112 81
Width: 1253
GlyphClass: 2
Flags: W
LayerCount: 2
UndoRedoHistory
Layer: 1
Undoes
EndUndoes
Redoes
EndRedoes
EndUndoRedoHistory
Fore
SplineSet
670 116 m 0,0,1
 822 116 822 116 906.5 223 c 128,-1,2
 991 330 991 330 991 521 c 0,3,4
 991 703 991 703 913 805 c 128,-1,5
 835 907 835 907 695 907 c 0,6,7
 530 907 530 907 433 781 c 128,-1,8
 336 655 336 655 336 434 c 2,9,-1
 336 268 l 1,10,11
 387 197 387 197 477.5 156.5 c 128,-1,12
 568 116 568 116 670 116 c 0,0,1
173 -457 m 1,13,-1
 173 718 l 2,14,15
 173 828 173 828 62 948 c 1,16,-1
 201 1026 l 1,17,18
 245 994 245 994 278 944.5 c 128,-1,19
 311 895 311 895 317 840 c 1,20,21
 371 937 371 937 475.5 992.5 c 128,-1,22
 580 1048 580 1048 704 1048 c 0,23,24
 919 1048 919 1048 1040 910 c 128,-1,25
 1161 772 1161 772 1161 527 c 0,26,27
 1161 268 1161 268 1037.5 123 c 128,-1,28
 914 -22 914 -22 694 -22 c 0,29,30
 587 -22 587 -22 490 9 c 128,-1,31
 393 40 393 40 337 95 c 1,32,-1
 337 -439 l 1,33,-1
 173 -457 l 1,13,-1
EndSplineSet
EndChar

StartChar: q
Encoding: 113 113 82
Width: 1241
GlyphClass: 2
Flags: W
LayerCount: 2
UndoRedoHistory
Layer: 1
Undoes
EndUndoes
Redoes
EndRedoes
EndUndoRedoHistory
Fore
SplineSet
588 116 m 0,0,1
 684 116 684 116 776 173 c 128,-1,2
 868 230 868 230 909 302 c 1,3,-1
 909 543 l 2,4,5
 909 710 909 710 827.5 808.5 c 128,-1,6
 746 907 746 907 589 907 c 0,7,8
 425 907 425 907 343.5 798 c 128,-1,9
 262 689 262 689 262 507 c 0,10,11
 262 331 262 331 344.5 223.5 c 128,-1,12
 427 116 427 116 588 116 c 0,0,1
1023 -539 m 1,13,14
 909 -426 l 1,15,-1
 909 128 l 1,16,17
 786 -22 786 -22 571 -22 c 0,18,19
 348 -22 348 -22 220 125.5 c 128,-1,20
 92 273 92 273 92 506 c 0,21,22
 92 744 92 744 224 896 c 128,-1,23
 356 1048 356 1048 583 1048 c 0,24,25
 716 1048 716 1048 789 1008 c 128,-1,26
 862 968 862 968 909 888 c 1,27,-1
 924 1026 l 1,28,-1
 1091 1026 l 1,29,30
 1073 904 1073 904 1073 813 c 2,31,-1
 1073 -355 l 1,32,33
 1113 -335 1113 -335 1325 -221 c 1,34,-1
 1397 -343 l 1,35,36
 1144 -480 1144 -480 1023 -539 c 1,13,14
EndSplineSet
EndChar

StartChar: r
Encoding: 114 114 83
Width: 792
GlyphClass: 2
Flags: W
LayerCount: 2
UndoRedoHistory
Layer: 1
Undoes
EndUndoes
Redoes
EndRedoes
EndUndoRedoHistory
Fore
SplineSet
185 0 m 1,0,-1
 185 699 l 2,1,2
 185 778 185 778 150.5 842 c 128,-1,3
 116 906 116 906 70 944 c 1,4,-1
 211 1026 l 1,5,6
 253 990 253 990 285 944 c 128,-1,7
 317 898 317 898 324 854 c 1,8,9
 366 937 366 937 448.5 992.5 c 128,-1,10
 531 1048 531 1048 624 1048 c 0,11,12
 706 1048 706 1048 778 1028 c 1,13,-1
 764 883 l 1,14,15
 696 907 696 907 619 907 c 0,16,17
 502 907 502 907 425.5 821 c 128,-1,18
 349 735 349 735 349 568 c 2,19,-1
 349 0 l 1,20,-1
 185 0 l 1,0,-1
EndSplineSet
EndChar

StartChar: s
Encoding: 115 115 84
Width: 896
GlyphClass: 2
Flags: W
LayerCount: 2
UndoRedoHistory
Layer: 1
Undoes
EndUndoes
Redoes
EndRedoes
EndUndoRedoHistory
Fore
SplineSet
464 -22 m 0,0,1
 276 -22 276 -22 108 71 c 1,2,-1
 158 212 l 1,3,4
 215 168 215 168 295.5 142 c 128,-1,5
 376 116 376 116 452 116 c 0,6,7
 541 116 541 116 596.5 151.5 c 128,-1,8
 652 187 652 187 652 260 c 0,9,10
 652 277 652 277 647.5 292.5 c 128,-1,11
 643 308 643 308 632.5 322.5 c 128,-1,12
 622 337 622 337 612 348.5 c 128,-1,13
 602 360 602 360 582.5 372.5 c 128,-1,14
 563 385 563 385 549.5 394 c 128,-1,15
 536 403 536 403 510 415 c 128,-1,16
 484 427 484 427 469 434 c 128,-1,17
 454 441 454 441 424 454.5 c 128,-1,18
 394 468 394 468 379 474 c 0,19,20
 332 496 332 496 298.5 513.5 c 128,-1,21
 265 531 265 531 226 559 c 128,-1,22
 187 587 187 587 164 615.5 c 128,-1,23
 141 644 141 644 125.5 684.5 c 128,-1,24
 110 725 110 725 111 771 c 0,25,26
 113 899 113 899 205 973.5 c 128,-1,27
 297 1048 297 1048 451 1048 c 0,28,29
 620 1048 620 1048 775 967 c 1,30,-1
 731 832 l 1,31,32
 591 907 591 907 461 907 c 0,33,34
 373 907 373 907 323 872.5 c 128,-1,35
 273 838 273 838 273 776 c 0,36,37
 273 759 273 759 279.5 742.5 c 128,-1,38
 286 726 286 726 296 713.5 c 128,-1,39
 306 701 306 701 324 687 c 128,-1,40
 342 673 342 673 357.5 663 c 128,-1,41
 373 653 373 653 400 640 c 128,-1,42
 427 627 427 627 445 618.5 c 128,-1,43
 463 610 463 610 495.5 596 c 128,-1,44
 528 582 528 582 546 574 c 0,45,46
 584 556 584 556 613 541 c 128,-1,47
 642 526 642 526 675.5 504.5 c 128,-1,48
 709 483 709 483 732 460.5 c 128,-1,49
 755 438 755 438 774.5 410 c 128,-1,50
 794 382 794 382 803.5 348 c 128,-1,51
 813 314 813 314 812 275 c 0,52,53
 809 142 809 142 714.5 60 c 128,-1,54
 620 -22 620 -22 464 -22 c 0,0,1
EndSplineSet
EndChar

StartChar: t
Encoding: 116 116 85
Width: 821
GlyphClass: 2
Flags: W
LayerCount: 2
UndoRedoHistory
Layer: 1
Undoes
EndUndoes
Redoes
EndRedoes
EndUndoRedoHistory
Fore
SplineSet
560 -8 m 0,0,1
 386 -8 386 -8 307 65 c 128,-1,2
 228 138 228 138 228 300 c 2,3,-1
 228 919 l 1,4,-1
 25 919 l 1,5,-1
 25 1026 l 1,6,-1
 233 1026 l 1,7,-1
 233 1298 l 1,8,-1
 392 1345 l 1,9,-1
 392 1026 l 1,10,-1
 729 1026 l 1,11,-1
 729 919 l 1,12,-1
 392 919 l 1,13,-1
 392 298 l 2,14,15
 392 204 392 204 436.5 161.5 c 128,-1,16
 481 119 481 119 579 119 c 0,17,18
 613 119 613 119 674.5 131.5 c 128,-1,19
 736 144 736 144 772 158 c 1,20,-1
 791 35 l 1,21,22
 743 18 743 18 672.5 5 c 128,-1,23
 602 -8 602 -8 560 -8 c 0,0,1
EndSplineSet
EndChar

StartChar: u
Encoding: 117 117 86
Width: 1199
GlyphClass: 2
Flags: W
LayerCount: 2
UndoRedoHistory
Layer: 1
Undoes
EndUndoes
Redoes
EndRedoes
EndUndoRedoHistory
Fore
SplineSet
522 -22 m 0,0,1
 446 -22 446 -22 379.5 -1 c 128,-1,2
 313 20 313 20 258 64 c 128,-1,3
 203 108 203 108 172.5 185 c 128,-1,4
 142 262 142 262 145 365 c 2,5,-1
 151 582 l 2,6,7
 154 671 154 671 148.5 747.5 c 128,-1,8
 143 824 143 824 134.5 867 c 128,-1,9
 126 910 126 910 115 944.5 c 128,-1,10
 104 979 104 979 99.5 987.5 c 128,-1,11
 95 996 95 996 92 1000 c 1,12,-1
 257 1026 l 1,13,-1
 264 1015 l 2,14,15
 271 1004 271 1004 280.5 973 c 128,-1,16
 290 942 290 942 299 897 c 128,-1,17
 308 852 308 852 313.5 772 c 128,-1,18
 319 692 319 692 316 595 c 2,19,20
 310 365 l 2,21,22
 307 230 307 230 374.5 173 c 128,-1,23
 442 116 442 116 547 116 c 0,24,25
 675 116 675 116 762.5 200.5 c 128,-1,26
 850 285 850 285 850 427 c 2,27,-1
 850 1026 l 1,28,-1
 1014 1026 l 1,29,-1
 1014 302 l 2,30,31
 1014 196 1014 196 1049 157.5 c 128,-1,32
 1084 119 1084 119 1155 135 c 1,33,-1
 1139 -3 l 1,34,35
 1025 -25 1025 -25 954.5 22.5 c 128,-1,36
 884 70 884 70 875 164 c 1,37,38
 760 -22 760 -22 522 -22 c 0,0,1
EndSplineSet
EndChar

StartChar: v
Encoding: 118 118 87
Width: 1062
GlyphClass: 2
Flags: W
LayerCount: 2
UndoRedoHistory
Layer: 1
Undoes
EndUndoes
Redoes
EndRedoes
EndUndoRedoHistory
Fore
SplineSet
445 0 m 1,0,-1
 16 1026 l 1,1,-1
 198 1026 l 1,2,-1
 479 336 l 2,3,4
 503 278 503 278 537 163 c 1,5,6
 584 315 584 315 593 336 c 2,7,-1
 869 1026 l 1,8,-1
 1046 1026 l 1,9,-1
 613 0 l 1,10,-1
 445 0 l 1,0,-1
EndSplineSet
EndChar

StartChar: w
Encoding: 119 119 88
Width: 1688
GlyphClass: 2
Flags: W
LayerCount: 2
UndoRedoHistory
Layer: 1
Undoes
EndUndoes
Redoes
EndRedoes
EndUndoRedoHistory
Fore
SplineSet
391 0 m 1,0,-1
 26 1026 l 1,1,-1
 202 1026 l 1,2,-1
 451 284 l 2,3,4
 456 268 456 268 466 234 c 128,-1,5
 476 200 476 200 480 186 c 1,6,7
 482 192 482 192 493 226 c 128,-1,8
 504 260 504 260 511 276 c 1,9,-1
 776 1026 l 1,10,-1
 942 1026 l 1,11,-1
 1190 286 l 2,12,13
 1195 271 1195 271 1204.5 237 c 128,-1,14
 1214 203 1214 203 1219 189 c 1,15,16
 1226 206 1226 206 1237 240.5 c 128,-1,17
 1248 275 1248 275 1253 287 c 1,18,-1
 1493 1026 l 1,19,-1
 1662 1026 l 1,20,-1
 1294 0 l 1,21,-1
 1134 0 l 1,22,-1
 853 831 l 1,23,-1
 553 0 l 1,24,-1
 391 0 l 1,0,-1
EndSplineSet
EndChar

StartChar: x
Encoding: 120 120 89
Width: 1087
GlyphClass: 2
Flags: W
LayerCount: 2
UndoRedoHistory
Layer: 1
Undoes
EndUndoes
Redoes
EndRedoes
EndUndoRedoHistory
Fore
SplineSet
48 0 m 1,0,-1
 448 514 l 1,1,-1
 67 1026 l 1,2,-1
 270 1026 l 1,3,-1
 558 626 l 1,4,-1
 847 1026 l 1,5,-1
 1026 1026 l 1,6,-1
 648 518 l 1,7,-1
 1039 0 l 1,8,-1
 838 0 l 1,9,-1
 542 408 l 1,10,-1
 238 0 l 1,11,-1
 48 0 l 1,0,-1
EndSplineSet
EndChar

StartChar: y
Encoding: 121 121 90
Width: 1186
GlyphClass: 2
Flags: W
LayerCount: 2
UndoRedoHistory
Layer: 1
Undoes
EndUndoes
Redoes
EndRedoes
EndUndoRedoHistory
Fore
SplineSet
527 -494 m 0,0,1
 358 -494 358 -494 191 -433 c 1,2,-1
 210 -280 l 1,3,4
 279 -314 279 -314 362.5 -335.5 c 128,-1,5
 446 -357 446 -357 513 -357 c 0,6,7
 670 -357 670 -357 766 -271 c 128,-1,8
 862 -185 862 -185 862 -44 c 2,9,-1
 862 128 l 1,10,11
 746 -22 746 -22 534 -22 c 0,12,13
 458 -22 458 -22 391.5 -1 c 128,-1,14
 325 20 325 20 270 64 c 128,-1,15
 215 108 215 108 184.5 185 c 128,-1,16
 154 262 154 262 157 365 c 2,17,-1
 163 582 l 2,18,19
 166 671 166 671 160.5 747.5 c 128,-1,20
 155 824 155 824 146.5 867 c 128,-1,21
 138 910 138 910 127 944.5 c 128,-1,22
 116 979 116 979 111.5 987.5 c 128,-1,23
 107 996 107 996 104 1000 c 1,24,-1
 269 1026 l 1,25,-1
 276 1015 l 2,26,27
 283 1004 283 1004 292.5 973 c 128,-1,28
 302 942 302 942 311 897 c 128,-1,29
 320 852 320 852 325.5 772 c 128,-1,30
 331 692 331 692 328 595 c 2,31,-1
 322 365 l 2,32,33
 319 230 319 230 386.5 173 c 128,-1,34
 454 116 454 116 559 116 c 0,35,36
 687 116 687 116 774.5 200.5 c 128,-1,37
 862 285 862 285 862 427 c 2,38,-1
 862 1026 l 1,39,-1
 1026 1026 l 1,40,-1
 1026 302 l 1,41,-1
 1026 -23 l 2,42,43
 1026 -235 1026 -235 888.5 -364.5 c 128,-1,44
 751 -494 751 -494 527 -494 c 0,0,1
EndSplineSet
EndChar

StartChar: z
Encoding: 122 122 91
Width: 979
GlyphClass: 2
Flags: W
LayerCount: 2
UndoRedoHistory
Layer: 1
Undoes
EndUndoes
Redoes
EndRedoes
EndUndoRedoHistory
Fore
SplineSet
80 0 m 1,0,-1
 80 89 l 1,1,-1
 680 891 l 1,2,-1
 106 891 l 1,3,-1
 106 1026 l 1,4,-1
 903 1026 l 1,5,-1
 903 939 l 1,6,-1
 305 134 l 1,7,-1
 920 134 l 1,8,-1
 920 0 l 1,9,-1
 80 0 l 1,0,-1
EndSplineSet
EndChar

StartChar: braceleft
Encoding: 123 123 92
Width: 627
GlyphClass: 2
Flags: W
LayerCount: 2
UndoRedoHistory
Layer: 1
Undoes
EndUndoes
Redoes
EndRedoes
EndUndoRedoHistory
Fore
SplineSet
566 -259 m 1,0,1
 493 -256 493 -256 436.5 -240.5 c 128,-1,2
 380 -225 380 -225 335 -194 c 128,-1,3
 290 -163 290 -163 266.5 -111.5 c 128,-1,4
 243 -60 243 -60 243 11 c 2,5,-1
 244 294 l 2,6,7
 244 342 244 342 241 376.5 c 128,-1,8
 238 411 238 411 228 444 c 128,-1,9
 218 477 218 477 201 498.5 c 128,-1,10
 184 520 184 520 155.5 535 c 128,-1,11
 127 550 127 550 88 554 c 1,12,-1
 87 554 l 1,13,-1
 86 553 l 1,14,-1
 86 554 l 1,15,-1
 86 675 l 1,16,-1
 86 676 l 1,17,-1
 87 676 l 1,18,-1
 88 675 l 1,19,20
 127 679 127 679 155.5 694 c 128,-1,21
 184 709 184 709 201 730.5 c 128,-1,22
 218 752 218 752 228 785 c 128,-1,23
 238 818 238 818 241 852.5 c 128,-1,24
 244 887 244 887 244 935 c 2,25,-1
 243 1218 l 2,26,27
 243 1474 243 1474 566 1488 c 1,28,-1
 566 1362 l 1,29,30
 466 1362 466 1362 434.5 1309.5 c 128,-1,31
 403 1257 403 1257 403 1122 c 1,32,-1
 405 884 l 2,33,34
 405 839 405 839 402.5 813.5 c 128,-1,35
 400 788 400 788 391 758 c 128,-1,36
 382 728 382 728 363.5 707 c 128,-1,37
 345 686 345 686 313 662.5 c 128,-1,38
 281 639 281 639 232 615 c 1,39,40
 293 585 293 585 328 558 c 128,-1,41
 363 531 363 531 380 496.5 c 128,-1,42
 397 462 397 462 401 431.5 c 128,-1,43
 405 401 405 401 405 345 c 2,44,-1
 403 107 l 1,45,46
 403 -28 403 -28 434.5 -80.5 c 128,-1,47
 466 -133 466 -133 566 -133 c 1,48,-1
 566 -259 l 1,0,1
EndSplineSet
EndChar

StartChar: bar
Encoding: 124 124 93
Width: 500
GlyphClass: 2
Flags: W
LayerCount: 2
UndoRedoHistory
Layer: 1
Undoes
EndUndoes
Redoes
EndRedoes
EndUndoRedoHistory
Fore
SplineSet
168 -491 m 1,0,-1
 168 1545 l 1,1,-1
 325 1545 l 1,2,-1
 325 -491 l 1,3,-1
 168 -491 l 1,0,-1
EndSplineSet
EndChar

StartChar: braceright
Encoding: 125 125 94
Width: 627
GlyphClass: 2
Flags: W
LayerCount: 2
UndoRedoHistory
Layer: 1
Undoes
EndUndoes
Redoes
EndRedoes
EndUndoRedoHistory
Fore
SplineSet
86 -259 m 1,0,1
 86 -133 l 1,2,3
 186 -133 186 -133 217.5 -80.5 c 128,-1,4
 249 -28 249 -28 249 107 c 1,5,-1
 247 345 l 2,6,7
 247 390 247 390 249.5 415.5 c 128,-1,8
 252 441 252 441 261 471 c 128,-1,9
 270 501 270 501 288.5 522 c 128,-1,10
 307 543 307 543 339 566.5 c 128,-1,11
 371 590 371 590 420 614 c 1,12,13
 359 644 359 644 324 671 c 128,-1,14
 289 698 289 698 272 732.5 c 128,-1,15
 255 767 255 767 251 797.5 c 128,-1,16
 247 828 247 828 247 884 c 2,17,-1
 249 1122 l 1,18,19
 249 1257 249 1257 217.5 1309.5 c 128,-1,20
 186 1362 186 1362 86 1362 c 1,21,-1
 86 1488 l 1,22,23
 409 1474 409 1474 409 1218 c 2,24,-1
 408 935 l 2,25,26
 408 887 408 887 411 852.5 c 128,-1,27
 414 818 414 818 424 785 c 128,-1,28
 434 752 434 752 451 730.5 c 128,-1,29
 468 709 468 709 496.5 694 c 128,-1,30
 525 679 525 679 564 675 c 1,31,-1
 565 676 l 1,32,-1
 566 676 l 1,33,-1
 566 675 l 1,34,-1
 566 554 l 1,35,-1
 566 553 l 1,36,-1
 565 554 l 1,37,-1
 564 554 l 1,38,39
 525 550 525 550 496.5 535 c 128,-1,40
 468 520 468 520 451 498.5 c 128,-1,41
 434 477 434 477 424 444 c 128,-1,42
 414 411 414 411 411 376.5 c 128,-1,43
 408 342 408 342 408 294 c 2,44,-1
 409 11 l 2,45,46
 409 -60 409 -60 385.5 -111.5 c 128,-1,47
 362 -163 362 -163 317 -194 c 128,-1,48
 272 -225 272 -225 215.5 -240.5 c 128,-1,49
 159 -256 159 -256 86 -259 c 1,0,1
EndSplineSet
EndChar

StartChar: asciitilde
Encoding: 126 126 95
Width: 1458
GlyphClass: 2
Flags: W
LayerCount: 2
UndoRedoHistory
Layer: 1
Undoes
EndUndoes
Redoes
EndRedoes
EndUndoRedoHistory
Fore
SplineSet
304 385 m 1,0,1
 189 440 l 1,2,3
 207 525 207 525 256 588.5 c 128,-1,4
 305 652 305 652 377 683 c 0,5,6
 427 705 427 705 491 705 c 0,7,8
 552 705 552 705 658 664 c 0,9,10
 695 649 695 649 776 611 c 128,-1,11
 857 573 857 573 900 557 c 0,12,13
 933 545 933 545 957 545 c 0,14,15
 1026 545 1026 545 1070 598 c 128,-1,16
 1114 651 1114 651 1131 723 c 1,17,-1
 1256 684 l 1,18,19
 1210 491 1210 491 1065 430 c 0,20,21
 1018 410 1018 410 956 410 c 0,22,23
 903 410 903 410 810 452 c 0,24,25
 786 463 786 463 735 487.5 c 128,-1,26
 684 512 684 512 643 529.5 c 128,-1,27
 602 547 602 547 564 559 c 0,28,29
 525 571 525 571 494 571 c 0,30,31
 418 571 418 571 370 516.5 c 128,-1,32
 322 462 322 462 304 385 c 1,0,1
EndSplineSet
EndChar

StartChar: exclamdown
Encoding: 161 161 97
Width: 737
GlyphClass: 2
Flags: W
LayerCount: 2
UndoRedoHistory
Layer: 1
Undoes
EndUndoes
Redoes
EndRedoes
EndUndoRedoHistory
Fore
SplineSet
353 1233 m 0,0,1
 308 1233 308 1233 273.5 1263.5 c 128,-1,2
 239 1294 239 1294 239 1344 c 0,3,4
 239 1391 239 1391 269 1423.5 c 128,-1,5
 299 1456 299 1456 352 1456 c 0,6,7
 397 1456 397 1456 431.5 1425.5 c 128,-1,8
 466 1395 466 1395 466 1345 c 0,9,10
 466 1298 466 1298 436 1265.5 c 128,-1,11
 406 1233 406 1233 353 1233 c 0,0,1
254 -6 m 1,12,-1
 305 1077 l 1,13,-1
 391 1077 l 1,14,-1
 441 -6 l 1,15,-1
 254 -6 l 1,12,-1
EndSplineSet
EndChar

StartChar: cent
Encoding: 162 162 98
Width: 1189
GlyphClass: 2
Flags: W
LayerCount: 2
UndoRedoHistory
Layer: 1
Undoes
EndUndoes
Redoes
EndRedoes
EndUndoRedoHistory
Fore
SplineSet
553 122 m 1,0,1
 553 904 l 1,2,3
 416 882 416 882 341.5 774.5 c 128,-1,4
 267 667 267 667 267 508 c 0,5,6
 267 344 267 344 344.5 243 c 128,-1,7
 422 142 422 142 553 122 c 1,0,1
553 -235 m 1,8,-1
 553 -20 l 1,9,10
 351 0 351 0 222.5 144 c 128,-1,11
 94 288 94 288 94 503 c 0,12,13
 94 732 94 732 217 881 c 128,-1,14
 340 1030 340 1030 553 1049 c 1,15,-1
 553 1281 l 1,16,-1
 666 1281 l 1,17,-1
 666 1049 l 1,18,19
 868 1034 868 1034 960 912 c 1,20,-1
 883 801 l 1,21,22
 809 893 809 893 666 907 c 1,23,-1
 666 120 l 1,24,25
 809 135 809 135 940 225 c 1,26,-1
 976 87 l 1,27,28
 826 -4 826 -4 666 -20 c 1,29,-1
 666 -235 l 1,30,-1
 553 -235 l 1,8,-1
EndSplineSet
EndChar

StartChar: sterling
Encoding: 163 163 99
Width: 1189
GlyphClass: 2
Flags: W
LayerCount: 2
UndoRedoHistory
Layer: 1
Undoes
EndUndoes
Redoes
EndRedoes
EndUndoRedoHistory
Fore
SplineSet
115 0 m 1,0,-1
 114 138 l 1,1,2
 157 163 157 163 187 188 c 128,-1,3
 217 213 217 213 243.5 248 c 128,-1,4
 270 283 270 283 283.5 331 c 128,-1,5
 297 379 297 379 297 440 c 2,6,-1
 297 690 l 1,7,-1
 114 690 l 1,8,-1
 114 832 l 1,9,-1
 296 832 l 1,10,11
 294 852 294 852 294 861 c 0,12,13
 294 972 294 972 305.5 1057 c 128,-1,14
 317 1142 317 1142 347 1218 c 128,-1,15
 377 1294 377 1294 426 1343 c 128,-1,16
 475 1392 475 1392 552 1420 c 128,-1,17
 629 1448 629 1448 733 1448 c 0,18,19
 947 1448 947 1448 1062 1357 c 1,20,21
 1010 1237 l 1,22,23
 896 1307 896 1307 736 1307 c 0,24,25
 589 1307 589 1307 526 1212 c 128,-1,26
 463 1117 463 1117 463 947 c 1,27,-1
 466 832 l 1,28,-1
 798 832 l 1,29,-1
 798 690 l 1,30,-1
 468 690 l 1,31,-1
 468 641 l 2,32,33
 468 535 468 535 465.5 471.5 c 128,-1,34
 463 408 463 408 450 327 c 128,-1,35
 437 246 437 246 411 194 c 0,36,37
 396 162 396 162 370 141 c 1,38,-1
 1081 141 l 1,39,-1
 1081 0 l 1,40,-1
 115 0 l 1,0,-1
EndSplineSet
EndChar

StartChar: currency
Encoding: 164 164 100
Width: 1238
GlyphClass: 2
Flags: W
LayerCount: 2
UndoRedoHistory
Layer: 1
Undoes
EndUndoes
Redoes
EndRedoes
EndUndoRedoHistory
Fore
SplineSet
564 351 m 128,-1,1
 690 351 690 351 776 437.5 c 128,-1,2
 862 524 862 524 865 651 c 128,-1,3
 868 778 868 778 783 870 c 128,-1,4
 698 962 698 962 572 965 c 128,-1,5
 446 968 446 968 354.5 876.5 c 128,-1,6
 263 785 263 785 263 658 c 128,-1,7
 263 531 263 531 350.5 441 c 128,-1,0
 438 351 438 351 564 351 c 128,-1,1
157 195 m 1,8,-1
 121 232 l 1,9,-1
 281 398 l 1,10,11
 175 511 175 511 175 661 c 0,12,13
 175 798 175 798 269 908 c 1,14,-1
 106 1065 l 1,15,-1
 145 1104 l 1,16,-1
 307 947 l 1,17,18
 424 1051 424 1051 576 1048 c 0,19,20
 713 1045 713 1045 818 956 c 1,21,-1
 976 1120 l 1,22,-1
 1016 1081 l 1,23,-1
 858 917 l 1,24,25
 960 804 960 804 957 651 c 0,26,27
 954 512 954 512 863 408 c 1,28,-1
 1031 246 l 1,29,-1
 994 210 l 1,30,-1
 827 371 l 1,31,32
 717 274 717 274 566 274 c 0,33,34
 429 274 429 274 319 363 c 1,35,-1
 157 195 l 1,8,-1
EndSplineSet
EndChar

StartChar: yen
Encoding: 165 165 101
Width: 1266
GlyphClass: 2
Flags: W
LayerCount: 2
UndoRedoHistory
Layer: 1
Undoes
EndUndoes
Redoes
EndRedoes
EndUndoRedoHistory
Fore
SplineSet
537 0 m 1,0,-1
 537 283 l 1,1,-1
 147 283 l 1,2,-1
 147 423 l 1,3,-1
 537 423 l 1,4,-1
 537 574 l 1,5,-1
 141 574 l 1,6,-1
 141 716 l 1,7,-1
 455 716 l 1,8,-1
 4 1456 l 1,9,-1
 195 1456 l 1,10,-1
 626 727 l 1,11,-1
 1061 1456 l 1,12,-1
 1252 1456 l 1,13,-1
 791 716 l 1,14,-1
 1099 716 l 1,15,-1
 1099 574 l 1,16,-1
 709 574 l 1,17,-1
 709 423 l 1,18,-1
 1102 423 l 1,19,-1
 1102 283 l 1,20,-1
 709 283 l 1,21,-1
 709 0 l 1,22,-1
 537 0 l 1,0,-1
EndSplineSet
EndChar

StartChar: brokenbar
Encoding: 166 166 102
Width: 500
GlyphClass: 2
Flags: W
LayerCount: 2
UndoRedoHistory
Layer: 1
Undoes
EndUndoes
Redoes
EndRedoes
EndUndoRedoHistory
Fore
SplineSet
168 677 m 1,0,-1
 168 1545 l 1,1,-1
 325 1545 l 1,2,-1
 325 677 l 1,3,-1
 168 677 l 1,0,-1
168 -491 m 1,4,-1
 168 393 l 1,5,-1
 325 393 l 1,6,-1
 325 -491 l 1,7,-1
 168 -491 l 1,4,-1
EndSplineSet
EndChar

StartChar: section
Encoding: 167 167 103
Width: 1097
GlyphClass: 2
Flags: W
LayerCount: 2
UndoRedoHistory
Layer: 1
Undoes
EndUndoes
Redoes
EndRedoes
EndUndoRedoHistory
Fore
SplineSet
591 547 m 1,0,1
 690 610 690 610 720 668 c 0,2,3
 733 693 733 693 733 723 c 0,4,5
 733 758 733 758 716.5 785 c 128,-1,6
 700 812 700 812 671 830.5 c 128,-1,7
 642 849 642 849 614 861.5 c 128,-1,8
 586 874 586 874 549.5 888 c 128,-1,9
 513 902 513 902 495 912 c 1,10,11
 436 881 436 881 399 841 c 128,-1,12
 362 801 362 801 362 741 c 0,13,14
 362 710 362 710 373 685 c 128,-1,15
 384 660 384 660 407 641.5 c 128,-1,16
 430 623 430 623 449 612 c 128,-1,17
 468 601 468 601 498 587 c 0,18,19
 530 572 530 572 591 547 c 1,0,1
482 -48 m 0,20,21
 339 -48 339 -48 212 4 c 1,22,-1
 210 153 l 1,23,24
 354 89 354 89 477 89 c 0,25,26
 555 89 555 89 614 112.5 c 128,-1,27
 673 136 673 136 699 182 c 0,28,29
 715 210 715 210 715 243 c 0,30,31
 715 271 715 271 705.5 293 c 128,-1,32
 696 315 696 315 675 331.5 c 128,-1,33
 654 348 654 348 638.5 357 c 128,-1,34
 623 366 623 366 594 379 c 0,35,36
 561 394 561 394 505 418 c 2,37,-1
 421 454 l 2,38,39
 340 488 340 488 284 532 c 128,-1,40
 228 576 228 576 202 640 c 0,41,42
 185 682 185 682 185 729 c 0,43,44
 185 880 185 880 374 975 c 1,45,46
 300 1020 300 1020 260.5 1074.5 c 128,-1,47
 221 1129 221 1129 221 1217 c 0,48,49
 221 1289 221 1289 252 1343.5 c 128,-1,50
 283 1398 283 1398 337.5 1430 c 128,-1,51
 392 1462 392 1462 458.5 1477.5 c 128,-1,52
 525 1493 525 1493 603 1493 c 0,53,54
 647 1493 647 1493 689 1487 c 128,-1,55
 731 1481 731 1481 758 1473.5 c 128,-1,56
 785 1466 785 1466 832 1452 c 1,57,-1
 834 1304 l 1,58,59
 723 1356 723 1356 608 1356 c 0,60,61
 393 1356 393 1356 393 1221 c 0,62,63
 393 1166 393 1166 422 1134 c 128,-1,64
 451 1102 451 1102 506 1072 c 0,65,66
 537 1055 537 1055 635.5 1011.5 c 128,-1,67
 734 968 734 968 793.5 928 c 128,-1,68
 853 888 853 888 886 832 c 0,69,70
 911 788 911 788 911 737 c 0,71,72
 911 690 911 690 894.5 649.5 c 128,-1,73
 878 609 878 609 848 577 c 128,-1,74
 818 545 818 545 790.5 524 c 128,-1,75
 763 503 763 503 725 480 c 1,76,77
 774 455 774 455 806.5 429.5 c 128,-1,78
 839 404 839 404 863.5 357.5 c 128,-1,79
 888 311 888 311 888 252 c 0,80,81
 888 116 888 116 765 30 c 0,82,83
 653 -48 653 -48 482 -48 c 0,20,21
EndSplineSet
EndChar

StartChar: dieresis
Encoding: 168 168 104
Width: 743
GlyphClass: 2
Flags: W
LayerCount: 2
UndoRedoHistory
Layer: 1
Undoes
EndUndoes
Redoes
EndRedoes
EndUndoRedoHistory
Fore
SplineSet
453 1183 m 1,0,-1
 453 1346 l 1,1,-1
 617 1346 l 1,2,-1
 617 1183 l 1,3,-1
 453 1183 l 1,0,-1
121 1183 m 1,4,-1
 121 1346 l 1,5,-1
 285 1346 l 1,6,-1
 285 1183 l 1,7,-1
 121 1183 l 1,4,-1
EndSplineSet
EndChar

StartChar: copyright
Encoding: 169 169 105
Width: 1829
GlyphClass: 2
Flags: W
LayerCount: 2
UndoRedoHistory
Layer: 1
Undoes
EndUndoes
Redoes
EndRedoes
EndUndoRedoHistory
Fore
SplineSet
913 85 m 0,0,1
 1060 85 1060 85 1183 135.5 c 128,-1,2
 1306 186 1306 186 1395 270 c 0,3,4
 1483 353 1483 353 1536.5 468 c 128,-1,5
 1590 583 1590 583 1590 724 c 0,6,7
 1590 995 1590 995 1394 1180 c 0,8,9
 1305 1264 1305 1264 1181 1315 c 128,-1,10
 1057 1366 1057 1366 909 1366 c 0,11,12
 762 1366 762 1366 638.5 1316 c 128,-1,13
 515 1266 515 1266 426 1182 c 0,14,15
 337 1099 337 1099 283.5 983.5 c 128,-1,16
 230 868 230 868 230 727 c 0,17,18
 230 585 230 585 283.5 469.5 c 128,-1,19
 337 354 337 354 426 270 c 0,20,21
 515 185 515 185 639.5 135 c 128,-1,22
 764 85 764 85 913 85 c 0,0,1
914 -32 m 0,23,24
 578 -32 578 -32 340 192 c 0,25,26
 191 331 191 331 132 526 c 0,27,28
 103 624 103 624 103 726 c 0,29,30
 103 1035 103 1035 341 1260 c 0,31,32
 578 1483 578 1483 908 1483 c 0,33,34
 1241 1483 1241 1483 1480 1258 c 0,35,36
 1630 1117 1630 1117 1688 924 c 0,37,38
 1717 826 1717 826 1717 725 c 0,39,40
 1717 416 1717 416 1480 192 c 128,-1,41
 1243 -32 1243 -32 914 -32 c 0,23,24
940 249 m 0,42,43
 778 249 778 249 663.5 330 c 128,-1,44
 549 411 549 411 496 542 c 0,45,46
 460 629 460 629 460 729 c 0,47,48
 460 894 460 894 539 1007 c 128,-1,49
 618 1120 618 1120 750 1172 c 0,50,51
 840 1208 840 1208 951 1208 c 0,52,53
 1124 1208 1124 1208 1245 1105 c 1,54,-1
 1214 985 l 1,55,56
 1104 1080 1104 1080 944 1080 c 0,57,58
 828 1080 828 1080 749.5 1022 c 128,-1,59
 671 964 671 964 636 868 c 0,60,61
 613 804 613 804 613 733 c 0,62,63
 613 612 613 612 667.5 529.5 c 128,-1,64
 722 447 722 447 816 408 c 0,65,66
 886 380 886 380 972 380 c 0,67,68
 1112 380 1112 380 1210 460 c 1,69,-1
 1249 339 l 1,70,71
 1120 249 1120 249 940 249 c 0,42,43
EndSplineSet
EndChar

StartChar: ordfeminine
Encoding: 170 170 106
Width: 745
GlyphClass: 2
Flags: W
LayerCount: 2
UndoRedoHistory
Layer: 1
Undoes
EndUndoes
Redoes
EndRedoes
EndUndoRedoHistory
Fore
SplineSet
338 871 m 0,0,1
 432 871 432 871 481.5 929.5 c 128,-1,2
 531 988 531 988 536 1085 c 1,3,-1
 536 1110 l 1,4,5
 510 1105 510 1105 459 1101.5 c 128,-1,6
 408 1098 408 1098 368.5 1093 c 128,-1,7
 329 1088 329 1088 288.5 1077.5 c 128,-1,8
 248 1067 248 1067 225 1041.5 c 128,-1,9
 202 1016 202 1016 202 977 c 0,10,11
 202 871 202 871 338 871 c 0,0,1
317 768 m 0,12,13
 234 768 234 768 173.5 800 c 128,-1,14
 113 832 113 832 85 890 c 0,15,16
 66 928 66 928 66 975 c 0,17,18
 66 1024 66 1024 86.5 1063.5 c 128,-1,19
 107 1103 107 1103 143 1128.5 c 128,-1,20
 179 1154 179 1154 220 1169.5 c 128,-1,21
 261 1185 261 1185 309 1192 c 0,22,23
 346 1197 346 1197 422.5 1201.5 c 128,-1,24
 499 1206 499 1206 536 1211 c 1,25,-1
 536 1219 l 2,26,27
 536 1302 536 1302 503 1335.5 c 128,-1,28
 470 1369 470 1369 388 1369 c 0,29,30
 242 1369 242 1369 178 1275 c 1,31,-1
 111 1350 l 1,32,33
 186 1477 186 1477 394 1477 c 0,34,35
 521 1477 521 1477 595 1416 c 128,-1,36
 669 1355 669 1355 669 1235 c 2,37,-1
 667 914 l 2,38,39
 667 870 667 870 674 786 c 1,40,-1
 543 786 l 1,41,-1
 537 860 l 1,42,43
 462 768 462 768 317 768 c 0,12,13
EndSplineSet
EndChar

StartChar: guillemotleft
Encoding: 171 171 107
Width: 1156
GlyphClass: 2
Flags: W
LayerCount: 2
UndoRedoHistory
Layer: 1
Undoes
EndUndoes
Redoes
EndRedoes
EndUndoRedoHistory
Fore
SplineSet
885 171 m 1,0,-1
 616 541 l 1,1,-1
 890 914 l 1,2,-1
 1049 914 l 1,3,-1
 786 541 l 1,4,-1
 1042 171 l 1,5,-1
 885 171 l 1,0,-1
515 171 m 1,6,-1
 246 541 l 1,7,-1
 521 914 l 1,8,-1
 681 914 l 1,9,-1
 416 541 l 1,10,-1
 672 171 l 1,11,-1
 515 171 l 1,6,-1
EndSplineSet
EndChar

StartChar: logicalnot
Encoding: 172 172 108
Width: 1458
GlyphClass: 2
Flags: W
LayerCount: 2
UndoRedoHistory
Layer: 1
Undoes
EndUndoes
Redoes
EndRedoes
EndUndoRedoHistory
Fore
SplineSet
1098 238 m 1,0,-1
 1098 659 l 1,1,-1
 200 659 l 1,2,-1
 200 798 l 1,3,-1
 1248 798 l 1,4,-1
 1248 238 l 1,5,-1
 1098 238 l 1,0,-1
EndSplineSet
EndChar

StartChar: registered
Encoding: 174 174 109
Width: 1829
GlyphClass: 2
Flags: W
LayerCount: 2
UndoRedoHistory
Layer: 1
Undoes
EndUndoes
Redoes
EndRedoes
EndUndoRedoHistory
Fore
SplineSet
743 783 m 1,0,-1
 868 783 l 2,1,2
 907 783 907 783 928 783.5 c 128,-1,3
 949 784 949 784 983 786.5 c 128,-1,4
 1017 789 1017 789 1036 794 c 128,-1,5
 1055 799 1055 799 1079 809 c 128,-1,6
 1103 819 1103 819 1115.5 833.5 c 128,-1,7
 1128 848 1128 848 1137 870 c 128,-1,8
 1146 892 1146 892 1146 920 c 0,9,10
 1146 952 1146 952 1137.5 976 c 128,-1,11
 1129 1000 1129 1000 1118 1016 c 128,-1,12
 1107 1032 1107 1032 1083.5 1043 c 128,-1,13
 1060 1054 1060 1054 1041.5 1059.5 c 128,-1,14
 1023 1065 1023 1065 988 1068 c 128,-1,15
 953 1071 953 1071 930.5 1071.5 c 128,-1,16
 908 1072 908 1072 866 1072 c 2,17,-1
 742 1072 l 1,18,-1
 743 783 l 1,0,-1
913 85 m 0,19,20
 1199 85 1199 85 1396 270 c 0,21,22
 1590 452 1590 452 1590 724 c 0,23,24
 1590 995 1590 995 1394 1180 c 0,25,26
 1305 1264 1305 1264 1181 1315 c 128,-1,27
 1057 1366 1057 1366 909 1366 c 0,28,29
 762 1366 762 1366 638.5 1316 c 128,-1,30
 515 1266 515 1266 426 1182 c 128,-1,31
 337 1098 337 1098 283.5 983 c 128,-1,32
 230 868 230 868 230 727 c 0,33,34
 230 585 230 585 283.5 469.5 c 128,-1,35
 337 354 337 354 426 270 c 0,36,37
 515 185 515 185 639.5 135 c 128,-1,38
 764 85 764 85 913 85 c 0,19,20
914 -32 m 0,39,40
 578 -32 578 -32 340 192 c 0,41,42
 191 331 191 331 132 526 c 0,43,44
 103 624 103 624 103 726 c 0,45,46
 103 1035 103 1035 341 1260 c 0,47,48
 578 1483 578 1483 908 1483 c 0,49,50
 1241 1483 1241 1483 1480 1258 c 0,51,52
 1630 1117 1630 1117 1688 924 c 0,53,54
 1717 826 1717 826 1717 725 c 0,55,56
 1717 416 1717 416 1480 192 c 128,-1,57
 1243 -32 1243 -32 914 -32 c 0,39,40
597 273 m 1,58,-1
 597 1192 l 1,59,-1
 870 1192 l 2,60,61
 1088 1192 1088 1192 1195 1126 c 0,62,63
 1301 1060 1301 1060 1301 935 c 0,64,65
 1301 822 1301 822 1228 759 c 128,-1,66
 1155 696 1155 696 1036 681 c 1,67,68
 1063 656 1063 656 1091 623 c 0,69,70
 1137 567 1137 567 1231 418 c 0,71,72
 1246 395 1246 395 1320 273 c 1,73,-1
 1152 273 l 1,74,-1
 1029 485 l 2,75,76
 950 621 950 621 882 664 c 1,77,-1
 745 664 l 1,78,-1
 745 273 l 1,79,-1
 597 273 l 1,58,-1
EndSplineSet
EndChar

StartChar: macron
Encoding: 175 175 110
Width: 728
GlyphClass: 2
Flags: W
LayerCount: 2
UndoRedoHistory
Layer: 1
Undoes
EndUndoes
Redoes
EndRedoes
EndUndoRedoHistory
Fore
SplineSet
79 1183 m 1,0,-1
 79 1317 l 1,1,-1
 651 1317 l 1,2,-1
 651 1183 l 1,3,-1
 79 1183 l 1,0,-1
EndSplineSet
EndChar

StartChar: degree
Encoding: 176 176 111
Width: 844
GlyphClass: 2
Flags: W
LayerCount: 2
UndoRedoHistory
Layer: 1
Undoes
EndUndoes
Redoes
EndRedoes
EndUndoRedoHistory
Fore
SplineSet
414 855 m 0,0,1
 312 855 312 855 235 906 c 128,-1,2
 158 957 158 957 120 1036 c 0,3,4
 95 1089 95 1089 95 1150 c 0,5,6
 95 1248 95 1248 151 1317.5 c 128,-1,7
 207 1387 207 1387 291 1421 c 1,8,9
 351 1444 351 1444 414 1444 c 0,10,11
 517 1444 517 1444 593.5 1393.5 c 128,-1,12
 670 1343 670 1343 708 1264 c 0,13,14
 733 1211 733 1211 733 1150 c 0,15,16
 733 1052 733 1052 677 982 c 128,-1,17
 621 912 621 912 536 878 c 0,18,19
 480 855 480 855 414 855 c 0,0,1
414 971 m 0,20,21
 477 971 477 971 524 1001.5 c 128,-1,22
 571 1032 571 1032 593 1080 c 0,23,24
 608 1113 608 1113 608 1151 c 0,25,26
 608 1211 608 1211 574 1252.5 c 128,-1,27
 540 1294 540 1294 488 1314 c 0,28,29
 451 1328 451 1328 414 1328 c 0,30,31
 351 1328 351 1328 305 1298.5 c 128,-1,32
 259 1269 259 1269 236 1222 c 1,33,34
 220 1187 220 1187 220 1151 c 0,35,36
 220 1090 220 1090 253 1048 c 128,-1,37
 286 1006 286 1006 338 985 c 0,38,39
 374 971 374 971 414 971 c 0,20,21
EndSplineSet
EndChar

StartChar: plusminus
Encoding: 177 177 112
Width: 1458
GlyphClass: 2
Flags: W
LayerCount: 2
UndoRedoHistory
Layer: 1
Undoes
EndUndoes
Redoes
EndRedoes
EndUndoRedoHistory
Fore
SplineSet
200 0 m 1,0,-1
 200 138 l 1,1,-1
 1249 138 l 1,2,-1
 1249 0 l 1,3,-1
 200 0 l 1,0,-1
647 223 m 1,4,-1
 647 595 l 1,5,-1
 200 595 l 1,6,-1
 188 733 l 1,7,-1
 645 733 l 1,8,-1
 645 1107 l 1,9,-1
 794 1107 l 1,10,-1
 794 733 l 1,11,-1
 1245 733 l 1,12,-1
 1245 595 l 1,13,-1
 798 595 l 1,14,-1
 798 223 l 1,15,-1
 647 223 l 1,4,-1
EndSplineSet
EndChar

StartChar: uni00B2
Encoding: 178 178 113
Width: 1190
GlyphClass: 2
Flags: W
LayerCount: 2
UndoRedoHistory
Layer: 1
Undoes
EndUndoes
Redoes
EndRedoes
EndUndoRedoHistory
Fore
SplineSet
283 604 m 1,0,-1
 283 715 l 1,1,2
 500 914 500 914 584 1006 c 0,3,4
 637 1065 637 1065 670 1118 c 0,5,6
 701 1168 701 1168 701 1211 c 0,7,8
 701 1265 701 1265 662 1294 c 128,-1,9
 623 1323 623 1323 561 1323 c 0,10,11
 438 1323 438 1323 376 1192 c 1,12,-1
 291 1270 l 1,13,14
 325 1348 325 1348 396 1394 c 128,-1,15
 467 1440 467 1440 567 1440 c 0,16,17
 654 1440 654 1440 717 1404.5 c 128,-1,18
 780 1369 780 1369 810 1307 c 0,19,20
 830 1264 830 1264 830 1213 c 0,21,22
 830 1142 830 1142 802 1085 c 128,-1,23
 774 1028 774 1028 724 968 c 0,24,25
 706 947 706 947 683.5 923 c 128,-1,26
 661 899 661 899 646 883.5 c 128,-1,27
 631 868 631 868 599.5 840 c 128,-1,28
 568 812 568 812 558 803 c 128,-1,29
 548 794 548 794 509 760.5 c 128,-1,30
 470 727 470 727 465 722 c 1,31,-1
 829 722 l 1,32,-1
 829 604 l 1,33,-1
 283 604 l 1,0,-1
EndSplineSet
EndChar

StartChar: uni00B3
Encoding: 179 179 114
Width: 1190
GlyphClass: 2
Flags: W
LayerCount: 2
UndoRedoHistory
Layer: 1
Undoes
EndUndoes
Redoes
EndRedoes
EndUndoRedoHistory
Fore
SplineSet
481 586 m 0,0,1
 332 586 332 586 235 683 c 1,2,-1
 295 779 l 1,3,4
 379 701 379 701 476 701 c 0,5,6
 551 701 551 701 601 736 c 128,-1,7
 651 771 651 771 651 837 c 0,8,9
 651 890 651 890 619 921 c 128,-1,10
 587 952 587 952 543 961.5 c 128,-1,11
 499 971 499 971 436 971 c 0,12,13
 433 971 433 971 422 970.5 c 128,-1,14
 411 970 411 970 406 970 c 2,15,-1
 380 970 l 1,16,-1
 380 1089 l 1,17,-1
 429 1089 l 2,18,19
 626 1089 626 1089 626 1210 c 0,20,21
 626 1322 626 1322 485 1322 c 0,22,23
 389 1322 389 1322 293 1244 c 1,24,-1
 235 1340 l 1,25,26
 279 1384 279 1384 346 1412.5 c 128,-1,27
 413 1441 413 1441 487 1441 c 0,28,29
 574 1441 574 1441 639 1405.5 c 128,-1,30
 704 1370 704 1370 736 1310 c 0,31,32
 759 1267 759 1267 759 1213 c 0,33,34
 759 1089 759 1089 652 1032 c 1,35,36
 780 975 780 975 780 834 c 0,37,38
 780 745 780 745 728.5 687 c 128,-1,39
 677 629 677 629 596 603 c 0,40,41
 540 586 540 586 481 586 c 0,0,1
EndSplineSet
EndChar

StartChar: acute
Encoding: 180 180 115
Width: 607
GlyphClass: 2
Flags: W
LayerCount: 2
UndoRedoHistory
Layer: 1
Undoes
EndUndoes
Redoes
EndRedoes
EndUndoRedoHistory
Fore
SplineSet
175 1172 m 1,0,-1
 401 1492 l 1,1,-1
 613 1492 l 1,2,-1
 305 1172 l 1,3,-1
 175 1172 l 1,0,-1
EndSplineSet
EndChar
